<svg id="Calque_1" data-name="Calque 1" xmlns="http://www.w3.org/2000/svg" xmlns:xlink="http://www.w3.org/1999/xlink" viewBox="0 0 1927.528 1144.423">
  <defs>
    <clipPath id="clip-path">
      <rect y="106.214" width="1927.528" height="1024.352" style="fill: none"/>
    </clipPath>
    <clipPath id="clip-path-5">
      <rect y="100.639" width="1927.528" height="1029.927" style="fill: none"/>
    </clipPath>
  </defs>
  <polyline points="1510.442 366.64 1472.442 366.64 1427.17 409.608" style="fill: none;stroke: #181716;stroke-linejoin: round;stroke-width: 2.40000009536743px"/>
  <path d="M1504.275,256.586a11.191,11.191,0,0,1-9.169,4.244c-8.528,0-13.613-6.967-13.613-14.414,0-8.328,4.564-15.535,13.613-15.535,6.246,0,11.211,2.8,12.292,9.489h-3.8c-.76-4.324-4.244-6.286-8.488-6.286-6.927,0-9.809,6.006-9.809,12.132,0,5.965,3.443,11.411,9.809,11.411,5.886,0,9.409-4.124,9.169-9.329h-9.129v-3.2h12.532v15.054h-2.4Zm26.757,3.483a4.587,4.587,0,0,1-2.443.561c-1.761,0-2.882-.961-2.882-3.2a9.188,9.188,0,0,1-7.288,3.2c-3.763,0-6.846-1.682-6.846-5.806,0-4.685,3.483-5.686,7.007-6.366,3.763-.721,6.966-.481,6.966-3.043,0-2.963-2.442-3.444-4.6-3.444-2.883,0-5.005.881-5.165,3.924h-3.4c.2-5.125,4.164-6.926,8.768-6.926,3.724,0,7.768.84,7.768,5.685v10.651c0,1.6,0,2.322,1.081,2.322a2.927,2.927,0,0,0,1.041-.2Zm-5.526-10.61c-1.321.961-3.883,1-6.166,1.4-2.242.4-4.164,1.2-4.164,3.724,0,2.242,1.922,3.043,4,3.043,4.485,0,6.326-2.8,6.326-4.685Zm6.986,8.088,12.492-15.1h-11.691v-3h16.1v2.322l-12.653,15.375h13.213v3h-17.457Zm33.4-15.1h-3.483v-3h3.483v-3.083c0-3.363,2-5.125,5.726-5.125a8.381,8.381,0,0,1,2.2.32v2.963a6.39,6.39,0,0,0-1.922-.28c-1.642,0-2.6.52-2.6,2.322v2.883h4v3h-4v17.7h-3.4Zm10.651-10.891h3.4v28.588h-3.4Zm25.805,28.588h-3.2v-3.283h-.08a7.206,7.206,0,0,1-6.727,3.764c-5.445,0-7.127-3.123-7.127-7.568V239.449h3.4v14.014a3.9,3.9,0,0,0,4.2,4.164c4.124,0,6.126-2.763,6.126-6.487V239.449h3.4Zm14.032-21.18c6.566,0,10.049,4.764,10.049,10.85,0,6.046-3.483,10.811-10.049,10.811s-10.05-4.765-10.05-10.811C1606.333,243.733,1609.816,238.969,1616.383,238.969Zm0,18.658c3.563,0,6.446-2.8,6.446-7.808,0-5.045-2.883-7.848-6.446-7.848s-6.447,2.8-6.447,7.848C1609.936,254.824,1612.819,257.627,1616.383,257.627Zm13.911-18.178h3.2v4.364h.08c1.642-3.323,3.924-4.965,7.608-4.844v3.6c-5.486,0-7.488,3.123-7.488,8.368v9.209h-3.4Zm30.373,14.134c-.921,4.564-4.2,7.047-8.849,7.047-6.606,0-9.729-4.565-9.929-10.891,0-6.206,4.084-10.77,9.729-10.77,7.327,0,9.57,6.846,9.369,11.851h-15.5c-.12,3.6,1.922,6.807,6.447,6.807,2.8,0,4.764-1.362,5.365-4.044Zm-3.283-5.766a5.957,5.957,0,0,0-5.966-5.846c-3.563,0-5.685,2.683-5.926,5.846Zm-5.165-16.936h4.364l-5.245,5.725h-2.562Zm14.353,22.742c.12,3.043,2.763,4,5.565,4,2.123,0,5.005-.481,5.005-3.083,0-2.643-3.363-3.083-6.766-3.844-3.364-.761-6.767-1.882-6.767-5.846,0-4.164,4.124-5.885,7.728-5.885,4.564,0,8.208,1.441,8.488,6.486h-3.4c-.241-2.643-2.563-3.484-4.805-3.484-2.042,0-4.4.561-4.4,2.643,0,2.442,3.6,2.843,6.766,3.6,3.4.76,6.767,1.881,6.767,5.885,0,4.925-4.605,6.527-8.809,6.527-4.644,0-8.568-1.882-8.768-7.007Z" style="fill: #181716"/>
  <g>
    <path d="M1482.89,279.6h12.519c5.678,0,8.758,3.16,8.758,8.438s-3.08,8.479-8.758,8.439h-8.719v11.678h-3.8Zm3.8,13.678h7.438c4.28.04,6.24-1.84,6.24-5.24s-1.96-5.239-6.24-5.239h-7.438Z" style="fill: #181716"/>
    <path d="M1508.81,279.6h18.757v3.2H1512.61v9.079h13.118v3.2H1512.61v13.078h-3.8Z" style="fill: #181716"/>
    <path d="M1551.846,288.194c-.8-4.039-4.039-6.079-8-6.079-6.8,0-9.678,5.6-9.678,11.558,0,6.52,2.879,11.958,9.718,11.958,5,0,7.879-3.519,8.239-8.238h3.8c-.719,7.119-5.159,11.438-12.357,11.438-8.879,0-13.2-6.559-13.2-14.878,0-8.278,4.718-15.037,13.517-15.037,5.959,0,10.878,3.2,11.758,9.278Z" style="fill: #181716"/>
    <path d="M1582.007,296.673h8.719v2.72h-8.719v8.758h-2.718v-8.758h-8.719v-2.72h8.719v-8.759h2.718Z" style="fill: #181716"/>
    <path d="M1606.888,279.6h3.8v12.278h15.037V279.6h3.8v28.555h-3.8V295.073h-15.037v13.078h-3.8Z" style="fill: #181716"/>
    <path d="M1635.768,279.6h18.757v3.2h-14.957v9.079h13.118v3.2h-13.118v13.078h-3.8Z" style="fill: #181716"/>
    <path d="M1678.805,288.194c-.8-4.039-4.039-6.079-8-6.079-6.8,0-9.678,5.6-9.678,11.558,0,6.52,2.879,11.958,9.718,11.958,5,0,7.879-3.519,8.238-8.238h3.8c-.719,7.119-5.159,11.438-12.357,11.438-8.879,0-13.2-6.559-13.2-14.878,0-8.278,4.718-15.037,13.517-15.037,5.959,0,10.878,3.2,11.758,9.278Z" style="fill: #181716"/>
    <path d="M1708.965,296.673h8.719v2.72h-8.719v8.758h-2.718v-8.758h-8.719v-2.72h8.719v-8.759h2.718Z" style="fill: #181716"/>
    <path d="M1750.364,287.954c-.441-4.079-3.159-5.839-7.079-5.839-3.2,0-6.4,1.16-6.4,4.88,0,3.519,4.559,4.039,9.158,5.079,4.56,1.039,9.119,2.64,9.119,8.238,0,6.079-5.959,8.519-11.159,8.519-6.4,0-11.8-3.119-11.8-10.078h3.6c0,4.8,4,6.878,8.319,6.878,3.439,0,7.239-1.08,7.239-5.2,0-3.919-4.56-4.6-9.118-5.6s-9.16-2.319-9.16-7.558c0-5.8,5.16-8.359,10.359-8.359,5.839,0,10.278,2.759,10.518,9.038Z" style="fill: #181716"/>
    <path d="M1759.766,279.6h18.757v3.2h-14.957v9.079h13.118v3.2h-13.118v13.078h-3.8Z" style="fill: #181716"/>
  </g>
  <path d="M1789.263,301.161a2.648,2.648,0,0,0-2.774-2.472c-3.381,0-3.917,3.731-4.01,6.272l.046.047a4.483,4.483,0,0,1,4.127-2.168c3.171,0,5.059,2.308,5.059,5.362,0,2.4-1.352,5.549-5.525,5.549-4.9,0-5.689-4.476-5.689-7.951,0-4.546,1.376-8.859,6.086-8.859a4.288,4.288,0,0,1,4.663,4.22Zm-6.411,7.158a3.392,3.392,0,1,0,6.761.023c0-2.052-1.072-3.754-3.334-3.754C1784.064,304.588,1782.852,306.244,1782.852,308.319Z" style="fill: #181716"/>
  <path d="M1481.531,337.834c-.28-5.759,3.119-10.038,9.118-10.038,4.959,0,8.879,2.879,8.879,8.158,0,5-3.36,7.519-6.879,9.719-3.56,2.16-7.279,3.959-7.959,7.479h14.558v3h-18.517c.56-6.719,3.959-9.119,7.959-11.6,4.8-2.96,7.238-4.719,7.238-8.639a5.166,5.166,0,0,0-5.479-5.119c-3.959,0-5.639,3.64-5.519,7.039Z" style="fill: #181716"/>
  <polyline points="1295.948 383.648 1333.948 383.648 1379.22 426.616" style="fill: none;stroke: #181716;stroke-linejoin: round;stroke-width: 2.40000009536743px"/>
  <g style="clip-path: url(#clip-path)">
    <path d="M1449.683,685.7,1410.235,405a298.412,298.412,0,0,1,39.448-2.76Z" style="fill: #e7eaf1"/>
    <path d="M1449.683,685.7,1325.419,430.923A269.7,269.7,0,0,1,1410.235,405Z" style="fill: #c5cddc"/>
    <path d="M1449.683,685.7l-280.7,39.456c-17.432-124.032,43.872-239.328,156.44-294.232Z" style="fill: #819ab5"/>
    <path d="M1449.683,685.7V402.235c156.552,0,283.464,126.912,283.464,283.464s-126.912,283.464-283.464,283.464c-144.032,0-260.656-101.384-280.7-244.008Z" style="fill: #5f83a2"/>
  </g>
  <polyline points="342.102 383.648 380.102 383.648 425.374 426.616" style="fill: none;stroke: #181716;stroke-linejoin: round;stroke-width: 2.40000009536743px"/>
  <polyline points="545.258 366.64 507.258 366.64 461.986 409.608" style="fill: none;stroke: #181716;stroke-linejoin: round;stroke-width: 2.40000009536743px"/>
  <rect x="266" y="1028.222" width="34.016" height="34.016" style="fill: #5f83a2"/>
  <g>
    <path d="M334.338,1042.288c-.8-4.039-4.04-6.078-8-6.078-6.8,0-9.678,5.6-9.678,11.557,0,6.519,2.879,11.958,9.718,11.958,5,0,7.879-3.519,8.239-8.238h3.8c-.72,7.118-5.159,11.437-12.358,11.437-8.878,0-13.2-6.558-13.2-14.876,0-8.28,4.72-15.039,13.518-15.039,5.959,0,10.878,3.2,11.758,9.279Z" style="fill: #181716"/>
    <path d="M355.218,1033.009c9.079,0,13.678,7.2,13.678,14.958s-4.6,14.957-13.678,14.957-13.677-7.2-13.677-14.957S346.14,1033.009,355.218,1033.009Zm0,26.716c6.959,0,9.879-6,9.879-11.758s-2.92-11.757-9.879-11.757-9.878,6-9.878,11.757S348.26,1059.725,355.218,1059.725Z" style="fill: #181716"/>
  </g>
  <path d="M371.446,1056.886c-.163-3.357,1.819-5.851,5.316-5.851,2.891,0,5.176,1.679,5.176,4.756,0,2.915-1.958,4.383-4.01,5.666-2.075,1.258-4.244,2.307-4.64,4.359h8.486v1.749H370.98c.326-3.917,2.308-5.316,4.639-6.762,2.8-1.724,4.22-2.751,4.22-5.036a3.011,3.011,0,0,0-3.194-2.984c-2.308,0-3.288,2.122-3.217,4.1Z" style="fill: #181716"/>
  <g>
    <path d="M402.264,1046.007h-4.44v-4.439h4.44Zm-4.44,11.8h4.44v4.44h-4.44Z" style="fill: #181716"/>
    <path d="M437.781,1062.245h-3.4v-2.8h-.08c-1.12,2.28-3.76,3.279-6.6,3.279-6.359,0-9.518-5.039-9.518-10.878s3.119-10.757,9.438-10.757c2.12,0,5.159.8,6.679,3.239h.08v-10.639h3.4Zm-9.6-2.52c4.559,0,6.318-3.919,6.318-7.8,0-4.079-1.839-7.838-6.518-7.838-4.639,0-6.2,3.96-6.2,8C421.784,1055.965,423.783,1059.725,428.183,1059.725Z" style="fill: #181716"/>
    <path d="M446.624,1037.849h-3.4v-4.16h3.4Zm-3.4,3.719h3.4v20.677h-3.4Z" style="fill: #181716"/>
    <path d="M460.822,1041.089c6.559,0,10.038,4.758,10.038,10.837,0,6.039-3.479,10.8-10.038,10.8s-10.038-4.759-10.038-10.8C450.784,1045.847,454.263,1041.089,460.822,1041.089Zm0,18.636c3.559,0,6.439-2.8,6.439-7.8,0-5.039-2.88-7.838-6.439-7.838s-6.439,2.8-6.439,7.838C454.383,1056.925,457.262,1059.725,460.822,1059.725Z" style="fill: #181716"/>
    <path d="M480.422,1051.367l-7.2-9.8h4.36l4.959,7.239,5.159-7.239h4.079l-7.119,9.519,8,11.158H488.3l-5.759-8.559-5.76,8.559h-4.119Z" style="fill: #181716"/>
    <path d="M503.7,1065.005c-1.559,4.039-2.959,5.518-6,5.518a6.787,6.787,0,0,1-2.359-.359v-3.12a6.943,6.943,0,0,0,2,.48,2.936,2.936,0,0,0,2.8-1.88l1.4-3.519-8.2-20.557h3.839l6.039,16.917h.08l5.8-16.917h3.6Z" style="fill: #181716"/>
    <path d="M534.06,1062.245h-3.4v-2.8h-.08c-1.12,2.28-3.759,3.279-6.6,3.279-6.359,0-9.518-5.039-9.518-10.878s3.119-10.757,9.438-10.757c2.12,0,5.159.8,6.679,3.239h.08v-10.639h3.4Zm-9.6-2.52c4.56,0,6.319-3.919,6.319-7.8,0-4.079-1.84-7.838-6.519-7.838-4.639,0-6.2,3.96-6.2,8C518.062,1055.965,520.062,1059.725,524.461,1059.725Z" style="fill: #181716"/>
    <path d="M556.939,1055.686c-.92,4.559-4.2,7.038-8.839,7.038-6.6,0-9.718-4.558-9.918-10.878,0-6.2,4.079-10.757,9.718-10.757,7.319,0,9.559,6.838,9.359,11.837H541.781c-.12,3.6,1.92,6.8,6.439,6.8,2.8,0,4.76-1.359,5.36-4.039Zm-3.28-5.76a5.948,5.948,0,0,0-5.959-5.838c-3.559,0-5.678,2.679-5.919,5.838Z" style="fill: #181716"/>
    <path d="M590.378,1062.245h-3.4v-2.8h-.08c-1.12,2.28-3.759,3.279-6.6,3.279-6.359,0-9.518-5.039-9.518-10.878s3.119-10.757,9.438-10.757c2.12,0,5.159.8,6.679,3.239h.08v-10.639h3.4Zm-9.6-2.52c4.559,0,6.319-3.919,6.319-7.8,0-4.079-1.84-7.838-6.519-7.838-4.639,0-6.2,3.96-6.2,8C574.381,1055.965,576.381,1059.725,580.78,1059.725Z" style="fill: #181716"/>
    <path d="M613.258,1055.686c-.92,4.559-4.2,7.038-8.839,7.038-6.6,0-9.718-4.558-9.918-10.878,0-6.2,4.08-10.757,9.719-10.757,7.319,0,9.558,6.838,9.358,11.837H598.1c-.121,3.6,1.92,6.8,6.439,6.8,2.8,0,4.759-1.359,5.359-4.039Zm-3.279-5.76a5.949,5.949,0,0,0-5.959-5.838c-3.56,0-5.679,2.679-5.919,5.838Z" style="fill: #181716"/>
    <path d="M642.258,1048.207a4.813,4.813,0,0,0-5.119-4.119c-4.919,0-6.439,3.879-6.439,8.079,0,3.8,1.719,7.558,6.039,7.558,3.279,0,5.239-1.92,5.679-5.039H645.9c-.76,5.039-3.919,8.038-9.118,8.038-6.319,0-9.678-4.4-9.678-10.557,0-6.2,3.2-11.078,9.758-11.078,4.679,0,8.438,2.2,8.918,7.118Z" style="fill: #181716"/>
    <path d="M668.017,1062.165a4.586,4.586,0,0,1-2.44.559c-1.76,0-2.879-.959-2.879-3.2a9.175,9.175,0,0,1-7.279,3.2c-3.76,0-6.839-1.679-6.839-5.8,0-4.678,3.479-5.678,7-6.358,3.759-.72,6.959-.48,6.959-3.04,0-2.959-2.44-3.439-4.6-3.439-2.879,0-5,.879-5.159,3.919h-3.4c.2-5.119,4.159-6.918,8.758-6.918,3.719,0,7.759.839,7.759,5.678v10.639c0,1.6,0,2.319,1.08,2.319a2.919,2.919,0,0,0,1.04-.2Zm-5.519-10.6c-1.32.959-3.88,1-6.16,1.4-2.239.4-4.159,1.2-4.159,3.72,0,2.239,1.92,3.039,4,3.039,4.479,0,6.319-2.8,6.319-4.679Z" style="fill: #181716"/>
    <path d="M671.059,1041.568h3.2v4.359h.08c1.64-3.319,3.919-4.959,7.6-4.838v3.6c-5.479,0-7.479,3.119-7.479,8.359v9.2h-3.4Z" style="fill: #181716"/>
    <path d="M684.619,1033.689h3.4v10.679h.08c1.119-2.279,3.759-3.279,6.6-3.279,6.359,0,9.519,5.039,9.519,10.877s-3.12,10.758-9.439,10.758c-2.119,0-5.159-.8-6.678-3.239h-.08v2.76h-3.4Zm9.6,10.4c-4.559,0-6.319,3.919-6.319,7.8,0,4.079,1.84,7.839,6.519,7.839,4.64,0,6.2-3.959,6.2-8C700.616,1047.847,698.617,1044.088,694.217,1044.088Z" style="fill: #181716"/>
    <path d="M717.137,1041.089c6.559,0,10.039,4.758,10.039,10.837,0,6.039-3.48,10.8-10.039,10.8s-10.038-4.759-10.038-10.8C707.1,1045.847,710.578,1041.089,717.137,1041.089Zm0,18.636c3.56,0,6.439-2.8,6.439-7.8,0-5.039-2.879-7.838-6.439-7.838s-6.439,2.8-6.439,7.838C710.7,1056.925,713.578,1059.725,717.137,1059.725Z" style="fill: #181716"/>
    <path d="M731.178,1041.568h3.2v3.279h.08a7.2,7.2,0,0,1,6.719-3.758c5.439,0,7.118,3.119,7.118,7.558v13.6h-3.4v-14a3.9,3.9,0,0,0-4.2-4.159c-4.12,0-6.119,2.759-6.119,6.479v11.678h-3.4Z" style="fill: #181716"/>
    <path d="M771.055,1055.686c-.92,4.559-4.2,7.038-8.839,7.038-6.6,0-9.718-4.558-9.918-10.878,0-6.2,4.079-10.757,9.719-10.757,7.318,0,9.558,6.838,9.358,11.837H755.9c-.12,3.6,1.92,6.8,6.439,6.8,2.8,0,4.76-1.359,5.36-4.039Zm-3.28-5.76a5.948,5.948,0,0,0-5.959-5.838c-3.559,0-5.678,2.679-5.919,5.838Z" style="fill: #181716"/>
  </g>
  <rect x="827.936" y="1028.222" width="34.016" height="34.016" style="fill: #819ab5"/>
  <g>
    <path d="M896.272,1042.288c-.8-4.039-4.04-6.078-8-6.078-6.8,0-9.678,5.6-9.678,11.557,0,6.519,2.88,11.958,9.719,11.958,5,0,7.878-3.519,8.238-8.238h3.8c-.72,7.118-5.16,11.437-12.358,11.437-8.879,0-13.2-6.558-13.2-14.876,0-8.28,4.719-15.039,13.518-15.039,5.959,0,10.878,3.2,11.758,9.279Z" style="fill: #181716"/>
    <path d="M905.074,1033.689h3.8v12.278h15.037v-12.278h3.8v28.556h-3.8v-13.078H908.874v13.078h-3.8Z" style="fill: #181716"/>
  </g>
  <path d="M940.6,1061.946h2.238v1.749H940.6v3.87h-1.865v-3.87h-7.251v-1.912l7.531-10.748H940.6Zm-1.865,0v-8.09h-.046l-5.5,8.09Z" style="fill: #181716"/>
  <g>
    <path d="M962.678,1046.007h-4.44v-4.439h4.44Zm-4.44,11.8h4.44v4.44h-4.44Z" style="fill: #181716"/>
    <path d="M979.718,1041.568h3.2v3.04H983a7.619,7.619,0,0,1,6.678-3.519c2.52,0,4.84,1,5.68,3.519a7.648,7.648,0,0,1,6.478-3.519c4.12,0,6.879,1.719,6.879,6v15.157h-3.4v-13.558c0-2.559-.68-4.6-4-4.6a5.008,5.008,0,0,0-5.4,5.279v12.878h-3.4v-13.558c0-2.68-.84-4.6-3.879-4.6a5.576,5.576,0,0,0-5.519,5.279v12.878h-3.4Z" style="fill: #181716"/>
    <path d="M1031.474,1055.686c-.92,4.559-4.2,7.038-8.838,7.038-6.6,0-9.719-4.558-9.919-10.878,0-6.2,4.08-10.757,9.719-10.757,7.318,0,9.559,6.838,9.358,11.837h-15.477c-.12,3.6,1.92,6.8,6.439,6.8,2.8,0,4.759-1.359,5.359-4.039Zm-3.279-5.76a5.949,5.949,0,0,0-5.959-5.838c-3.56,0-5.679,2.679-5.919,5.838Zm-5.159-16.917h4.359l-5.239,5.72h-2.56Z" style="fill: #181716"/>
    <path d="M1040.036,1041.568h4.12v3h-4.12v12.838c0,1.559.44,1.84,2.559,1.84h1.561v3h-2.6c-3.519,0-4.92-.72-4.92-4.52v-13.157h-3.518v-3h3.518v-6.2h3.4Z" style="fill: #181716"/>
    <path d="M1047.917,1033.689h3.4v10.919h.08c1.12-2.479,4.039-3.519,6.519-3.519,5.439,0,7.119,3.119,7.119,7.558v13.6h-3.4v-14a3.9,3.9,0,0,0-4.2-4.159c-4.119,0-6.119,2.759-6.119,6.479v11.678h-3.4Z" style="fill: #181716"/>
    <path d="M1088.474,1062.165a4.586,4.586,0,0,1-2.44.559c-1.76,0-2.879-.959-2.879-3.2a9.175,9.175,0,0,1-7.279,3.2c-3.759,0-6.839-1.679-6.839-5.8,0-4.678,3.479-5.678,7-6.358,3.759-.72,6.959-.48,6.959-3.04,0-2.959-2.44-3.439-4.6-3.439-2.879,0-5,.879-5.159,3.919h-3.4c.2-5.119,4.16-6.918,8.759-6.918,3.72,0,7.759.839,7.759,5.678v10.639c0,1.6,0,2.319,1.08,2.319a2.923,2.923,0,0,0,1.04-.2Zm-5.519-10.6c-1.32.959-3.879,1-6.16,1.4-2.239.4-4.159,1.2-4.159,3.72,0,2.239,1.92,3.039,4,3.039,4.48,0,6.32-2.8,6.32-4.679Z" style="fill: #181716"/>
    <path d="M1091.636,1041.568h3.2v3.279h.081a7.2,7.2,0,0,1,6.718-3.758c5.44,0,7.119,3.119,7.119,7.558v13.6h-3.4v-14a3.9,3.9,0,0,0-4.2-4.159c-4.119,0-6.119,2.759-6.119,6.479v11.678h-3.4Z" style="fill: #181716"/>
    <path d="M1131.513,1055.686c-.92,4.559-4.2,7.038-8.838,7.038-6.6,0-9.718-4.558-9.919-10.878,0-6.2,4.08-10.757,9.719-10.757,7.318,0,9.559,6.838,9.359,11.837h-15.478c-.12,3.6,1.92,6.8,6.439,6.8,2.8,0,4.759-1.359,5.359-4.039Zm-3.279-5.76a5.949,5.949,0,0,0-5.959-5.838c-3.56,0-5.679,2.679-5.919,5.838Z" style="fill: #181716"/>
  </g>
  <rect x="1188.392" y="1028.222" width="34.016" height="34.016" style="fill: #c5cddc"/>
  <path d="M1236.611,1033.689h4.04l15.037,23.156h.08v-23.156h3.6v28.556h-4.159l-14.918-22.916h-.081v22.916h-3.6Z" style="fill: #181716"/>
  <path d="M1263.437,1056.886c-.163-3.357,1.819-5.851,5.316-5.851,2.891,0,5.176,1.679,5.176,4.756,0,2.915-1.958,4.383-4.01,5.666-2.075,1.258-4.244,2.307-4.639,4.359h8.486v1.749h-10.8c.326-3.917,2.309-5.316,4.64-6.762,2.8-1.724,4.221-2.751,4.221-5.036a3.013,3.013,0,0,0-3.2-2.984c-2.308,0-3.288,2.122-3.218,4.1Z" style="fill: #181716"/>
  <g>
    <path d="M1290.574,1033.009c9.079,0,13.677,7.2,13.677,14.958s-4.6,14.957-13.677,14.957-13.678-7.2-13.678-14.957S1281.5,1033.009,1290.574,1033.009Zm0,26.716c6.959,0,9.879-6,9.879-11.758s-2.92-11.757-9.879-11.757-9.878,6-9.878,11.757S1283.615,1059.725,1290.574,1059.725Z" style="fill: #181716"/>
    <path d="M1324.655,1046.007h-4.44v-4.439h4.44Zm-4.44,11.8h4.44v4.44h-4.44Z" style="fill: #181716"/>
    <path d="M1341.816,1041.568h3.4v2.8h.08c1.12-2.279,3.759-3.279,6.6-3.279,6.359,0,9.519,5.039,9.519,10.877s-3.12,10.758-9.439,10.758c-2.12,0-5.159-.8-6.679-3.239h-.08v10.679h-3.4Zm9.6,2.52c-4.56,0-6.32,3.919-6.32,7.8,0,4.079,1.84,7.839,6.519,7.839,4.639,0,6.2-3.959,6.2-8C1357.813,1047.847,1355.813,1044.088,1351.415,1044.088Z" style="fill: #181716"/>
    <path d="M1365.3,1041.568h3.2v4.359h.08c1.639-3.319,3.92-4.959,7.6-4.838v3.6c-5.478,0-7.478,3.119-7.478,8.359v9.2h-3.4Z" style="fill: #181716"/>
    <path d="M1386.974,1041.089c6.559,0,10.038,4.758,10.038,10.837,0,6.039-3.479,10.8-10.038,10.8s-10.039-4.759-10.039-10.8C1376.935,1045.847,1380.415,1041.089,1386.974,1041.089Zm0,18.636c3.559,0,6.439-2.8,6.439-7.8,0-5.039-2.88-7.838-6.439-7.838s-6.439,2.8-6.439,7.838C1380.535,1056.925,1383.415,1059.725,1386.974,1059.725Z" style="fill: #181716"/>
    <path d="M1405.733,1041.568h4.12v3h-4.12v12.838c0,1.559.44,1.84,2.559,1.84h1.561v3h-2.6c-3.519,0-4.919-.72-4.919-4.52v-13.157h-3.519v-3h3.519v-6.2h3.4Z" style="fill: #181716"/>
    <path d="M1422.533,1041.089c6.558,0,10.038,4.758,10.038,10.837,0,6.039-3.48,10.8-10.038,10.8s-10.039-4.759-10.039-10.8C1412.494,1045.847,1415.973,1041.089,1422.533,1041.089Zm0,18.636c3.558,0,6.438-2.8,6.438-7.8,0-5.039-2.88-7.838-6.438-7.838s-6.44,2.8-6.44,7.838C1416.093,1056.925,1418.973,1059.725,1422.533,1059.725Z" style="fill: #181716"/>
    <path d="M1442.132,1051.367l-7.2-9.8h4.359l4.959,7.239,5.16-7.239h4.079l-7.118,9.519,8,11.158h-4.36l-5.759-8.559-5.758,8.559h-4.119Z" style="fill: #181716"/>
    <path d="M1465.412,1065.005c-1.56,4.039-2.959,5.518-6,5.518a6.794,6.794,0,0,1-2.361-.359v-3.12a6.973,6.973,0,0,0,2,.48,2.937,2.937,0,0,0,2.8-1.88l1.4-3.519-8.2-20.557h3.839l6.039,16.917h.08l5.8-16.917h3.6Z" style="fill: #181716"/>
    <path d="M1495.77,1062.245h-3.4v-2.8h-.08c-1.12,2.28-3.759,3.279-6.6,3.279-6.358,0-9.519-5.039-9.519-10.878s3.12-10.757,9.439-10.757c2.12,0,5.159.8,6.679,3.239h.08v-10.639h3.4Zm-9.6-2.52c4.559,0,6.319-3.919,6.319-7.8,0-4.079-1.84-7.838-6.519-7.838-4.639,0-6.2,3.96-6.2,8C1479.773,1055.965,1481.773,1059.725,1486.172,1059.725Z" style="fill: #181716"/>
    <path d="M1518.65,1055.686c-.92,4.559-4.2,7.038-8.838,7.038-6.6,0-9.719-4.558-9.919-10.878,0-6.2,4.08-10.757,9.719-10.757,7.318,0,9.558,6.838,9.358,11.837h-15.477c-.12,3.6,1.92,6.8,6.439,6.8,2.8,0,4.759-1.359,5.359-4.039Zm-3.279-5.76a5.95,5.95,0,0,0-5.959-5.838c-3.56,0-5.679,2.679-5.919,5.838Z" style="fill: #181716"/>
    <path d="M1552.088,1062.245h-3.4v-2.8h-.08c-1.119,2.28-3.759,3.279-6.6,3.279-6.358,0-9.518-5.039-9.518-10.878s3.12-10.757,9.438-10.757c2.12,0,5.159.8,6.679,3.239h.08v-10.639h3.4Zm-9.6-2.52c4.558,0,6.318-3.919,6.318-7.8,0-4.079-1.84-7.838-6.518-7.838-4.64,0-6.2,3.96-6.2,8C1536.091,1055.965,1538.091,1059.725,1542.491,1059.725Z" style="fill: #181716"/>
    <path d="M1558.091,1033.689h4.44v4.44c0,3.16-1.321,5.878-4.4,5.878v-2c1.8,0,2.32-2.04,2.32-3.879h-2.36Z" style="fill: #181716"/>
    <path d="M1586.769,1062.165a4.589,4.589,0,0,1-2.44.559c-1.76,0-2.879-.959-2.879-3.2a9.176,9.176,0,0,1-7.28,3.2c-3.758,0-6.838-1.679-6.838-5.8,0-4.678,3.479-5.678,7-6.358,3.759-.72,6.959-.48,6.959-3.04,0-2.959-2.44-3.439-4.6-3.439-2.879,0-5,.879-5.159,3.919h-3.4c.2-5.119,4.16-6.918,8.759-6.918,3.72,0,7.759.839,7.759,5.678v10.639c0,1.6,0,2.319,1.08,2.319a2.923,2.923,0,0,0,1.04-.2Zm-5.519-10.6c-1.32.959-3.879,1-6.16,1.4-2.239.4-4.159,1.2-4.159,3.72,0,2.239,1.92,3.039,4,3.039,4.48,0,6.32-2.8,6.32-4.679Z" style="fill: #181716"/>
    <path d="M1588.251,1059.645l12.478-15.077h-11.678v-3h16.077v2.32l-12.637,15.358h13.2v3h-17.438Z" style="fill: #181716"/>
    <path d="M1618.05,1041.089c6.559,0,10.038,4.758,10.038,10.837,0,6.039-3.479,10.8-10.038,10.8s-10.039-4.759-10.039-10.8C1608.011,1045.847,1611.491,1041.089,1618.05,1041.089Zm0,18.636c3.559,0,6.439-2.8,6.439-7.8,0-5.039-2.88-7.838-6.439-7.838s-6.439,2.8-6.439,7.838C1611.611,1056.925,1614.491,1059.725,1618.05,1059.725Z" style="fill: #181716"/>
    <path d="M1636.809,1041.568h4.12v3h-4.12v12.838c0,1.559.441,1.84,2.56,1.84h1.56v3h-2.6c-3.52,0-4.92-.72-4.92-4.52v-13.157h-3.519v-3h3.519v-6.2h3.4Z" style="fill: #181716"/>
    <path d="M1662.327,1055.686c-.92,4.559-4.2,7.038-8.838,7.038-6.6,0-9.719-4.558-9.919-10.878,0-6.2,4.08-10.757,9.719-10.757,7.318,0,9.558,6.838,9.358,11.837h-15.478c-.12,3.6,1.92,6.8,6.44,6.8,2.8,0,4.759-1.359,5.358-4.039Zm-3.28-5.76a5.949,5.949,0,0,0-5.959-5.838c-3.559,0-5.678,2.679-5.919,5.838Z" style="fill: #181716"/>
  </g>
  <rect x="93.824" y="1084.222" width="34.016" height="34.016" style="fill: #e7eaf1"/>
  <path d="M163.465,1114.679a11.192,11.192,0,0,1-9.169,4.245c-8.529,0-13.614-6.967-13.614-14.415,0-8.328,4.565-15.535,13.614-15.535,6.246,0,11.211,2.8,12.292,9.49h-3.8c-.761-4.325-4.244-6.287-8.488-6.287-6.927,0-9.81,6.006-9.81,12.132,0,5.966,3.444,11.411,9.81,11.411,5.885,0,9.409-4.124,9.169-9.329h-9.129v-3.2h12.532v15.055h-2.4Zm26.756,3.484a4.591,4.591,0,0,1-2.442.56c-1.762,0-2.883-.961-2.883-3.2a9.186,9.186,0,0,1-7.287,3.2c-3.764,0-6.847-1.681-6.847-5.805,0-4.685,3.484-5.686,7.007-6.367,3.764-.72,6.967-.48,6.967-3.043,0-2.962-2.442-3.443-4.6-3.443-2.882,0-5,.881-5.165,3.924h-3.4c.2-5.125,4.164-6.927,8.769-6.927,3.723,0,7.767.841,7.767,5.686v10.65c0,1.6,0,2.322,1.081,2.322a2.92,2.92,0,0,0,1.041-.2Zm-5.525-10.611c-1.321.961-3.884,1-6.166,1.4-2.242.4-4.164,1.2-4.164,3.723,0,2.243,1.922,3.043,4,3.043,4.484,0,6.326-2.8,6.326-4.684Zm6.986,8.088,12.492-15.094H192.483v-3h16.1v2.322l-12.652,15.375h13.213v3H191.682Zm33.4-15.094H221.6v-3h3.484v-3.083c0-3.364,2-5.125,5.725-5.125a8.369,8.369,0,0,1,2.2.32v2.963a6.384,6.384,0,0,0-1.921-.28c-1.642,0-2.6.52-2.6,2.322v2.883h4v3h-4v17.7h-3.4Zm10.65-10.891h3.4v28.588h-3.4Zm25.805,28.588h-3.2v-3.283h-.08a7.206,7.206,0,0,1-6.727,3.763c-5.445,0-7.126-3.123-7.126-7.567v-13.613h3.4v14.013a3.9,3.9,0,0,0,4.2,4.164c4.124,0,6.126-2.762,6.126-6.486v-11.691h3.4Zm14.032-21.181c6.567,0,10.05,4.765,10.05,10.851,0,6.046-3.483,10.81-10.05,10.81s-10.05-4.764-10.05-10.81C265.522,1101.827,269.006,1097.062,275.572,1097.062Zm0,18.658c3.564,0,6.447-2.8,6.447-7.807,0-5.045-2.883-7.848-6.447-7.848s-6.446,2.8-6.446,7.848C269.126,1112.918,272.009,1115.72,275.572,1115.72Zm13.912-18.177h3.2v4.364h.08c1.641-3.323,3.924-4.965,7.607-4.845v3.6c-5.485,0-7.487,3.123-7.487,8.368v9.209h-3.4Zm30.377,14.133c-.921,4.565-4.2,7.047-8.849,7.047-6.606,0-9.729-4.564-9.93-10.89,0-6.206,4.084-10.771,9.73-10.771,7.327,0,9.569,6.847,9.369,11.852h-15.5c-.12,3.6,1.922,6.806,6.446,6.806,2.8,0,4.765-1.361,5.365-4.044Zm-3.284-5.765a5.956,5.956,0,0,0-5.965-5.846c-3.564,0-5.686,2.683-5.926,5.846Zm-5.165-16.937h4.365l-5.245,5.726h-2.563Zm14.354,22.742c.12,3.043,2.762,4,5.565,4,2.122,0,5-.48,5-3.083,0-2.642-3.363-3.083-6.767-3.843-3.363-.761-6.766-1.882-6.766-5.846,0-4.164,4.124-5.886,7.727-5.886,4.565,0,8.208,1.442,8.488,6.487h-3.4c-.24-2.643-2.562-3.484-4.805-3.484-2.042,0-4.4.561-4.4,2.643,0,2.442,3.6,2.842,6.767,3.6,3.4.761,6.766,1.882,6.766,5.886,0,4.925-4.6,6.526-8.808,6.526-4.645,0-8.569-1.882-8.769-7.007Zm34.643,14.455c-3.844-6.006-6.286-11.732-6.286-18.739a31.492,31.492,0,0,1,6.286-18.458h2.6a33.124,33.124,0,0,0-5.286,18.458,33.75,33.75,0,0,0,5.286,18.739Zm5.315-36.516h3.8v12.292h15.055v-12.292h3.8v28.588h-3.8V1105.15H369.528v13.093h-3.8Zm28.88,0h18.779v3.2H398.408v9.089h13.133v3.2H398.408v13.093h-3.8Zm43.06,8.608c-.8-4.044-4.044-6.086-8.008-6.086-6.806,0-9.689,5.606-9.689,11.572,0,6.526,2.883,11.971,9.729,11.971,5,0,7.888-3.523,8.248-8.248h3.8c-.721,7.127-5.165,11.452-12.372,11.452-8.889,0-13.213-6.567-13.213-14.895,0-8.288,4.725-15.055,13.533-15.055,5.966,0,10.891,3.2,11.772,9.289Zm24.545,3.724h-4.444v-4.444h4.444Zm-4.444,11.812h4.444v4.444h-4.444Zm21.479-24.144h3.4v10.931h.08c1.121-2.483,4.044-3.524,6.527-3.524,5.445,0,7.127,3.123,7.127,7.568v13.613h-3.4v-14.014a3.9,3.9,0,0,0-4.2-4.164c-4.124,0-6.126,2.763-6.126,6.486v11.692h-3.4Zm30.368,31.351c-1.562,4.043-2.963,5.525-6.006,5.525a6.777,6.777,0,0,1-2.362-.36v-3.123a6.962,6.962,0,0,0,2,.48,2.938,2.938,0,0,0,2.8-1.882l1.4-3.523-8.208-20.58h3.843l6.046,16.936h.08l5.806-16.936h3.6Zm30.37-2.763h-3.4v-2.8h-.08c-1.122,2.282-3.764,3.283-6.607,3.283-6.366,0-9.529-5.045-9.529-10.89s3.123-10.771,9.449-10.771c2.122,0,5.165.8,6.687,3.243h.08v-10.65h3.4Zm-9.609-2.523c4.564,0,6.326-3.923,6.326-7.807,0-4.084-1.842-7.848-6.527-7.848-4.644,0-6.206,3.964-6.206,8.008C523.966,1111.957,525.968,1115.72,530.373,1115.72Zm14.711-18.177h3.2v4.364h.08c1.642-3.323,3.924-4.965,7.607-4.845v3.6c-5.485,0-7.487,3.123-7.487,8.368v9.209h-3.4Zm21.644-.481c6.567,0,10.05,4.765,10.05,10.851,0,6.046-3.483,10.81-10.05,10.81s-10.049-4.764-10.049-10.81C556.679,1101.827,560.162,1097.062,566.728,1097.062Zm0,18.658c3.564,0,6.447-2.8,6.447-7.807,0-5.045-2.883-7.848-6.447-7.848s-6.446,2.8-6.446,7.848C560.282,1112.918,563.165,1115.72,566.728,1115.72Zm15.433-15.174h-3.483v-3h3.483v-3.083c0-3.364,2-5.125,5.726-5.125a8.381,8.381,0,0,1,2.2.32v2.963a6.39,6.39,0,0,0-1.922-.28c-1.641,0-2.6.52-2.6,2.322v2.883h4v3h-4v17.7h-3.4Zm10.651-10.891h3.4v28.588h-3.4Zm25.8,28.588h-3.2v-3.283h-.08a7.207,7.207,0,0,1-6.727,3.763c-5.445,0-7.127-3.123-7.127-7.567v-13.613h3.4v14.013a3.9,3.9,0,0,0,4.2,4.164c4.124,0,6.126-2.762,6.126-6.486v-11.691h3.4Zm14.032-21.181c6.566,0,10.05,4.765,10.05,10.851,0,6.046-3.484,10.81-10.05,10.81s-10.05-4.764-10.05-10.81C622.6,1101.827,626.082,1097.062,632.649,1097.062Zm0,18.658c3.563,0,6.446-2.8,6.446-7.807,0-5.045-2.883-7.848-6.446-7.848s-6.446,2.8-6.446,7.848C626.2,1112.918,629.085,1115.72,632.649,1115.72Zm13.911-18.177h3.2v4.364h.08c1.642-3.323,3.924-4.965,7.608-4.845v3.6c-5.486,0-7.487,3.123-7.487,8.368v9.209h-3.4Zm21.645-.481c6.566,0,10.05,4.765,10.05,10.851,0,6.046-3.484,10.81-10.05,10.81s-10.05-4.764-10.05-10.81C658.155,1101.827,661.638,1097.062,668.205,1097.062Zm0,18.658c3.563,0,6.446-2.8,6.446-7.807,0-5.045-2.883-7.848-6.446-7.848s-6.447,2.8-6.447,7.848C661.758,1112.918,664.641,1115.72,668.205,1115.72Zm28.085-11.531a4.819,4.819,0,0,0-5.125-4.124c-4.925,0-6.446,3.884-6.446,8.088,0,3.8,1.721,7.567,6.046,7.567,3.283,0,5.245-1.921,5.685-5.045h3.483c-.76,5.045-3.923,8.048-9.128,8.048-6.327,0-9.69-4.4-9.69-10.57,0-6.206,3.2-11.091,9.77-11.091,4.684,0,8.448,2.2,8.928,7.127Zm25.764,13.974a4.591,4.591,0,0,1-2.442.56c-1.762,0-2.883-.961-2.883-3.2a9.186,9.186,0,0,1-7.287,3.2c-3.764,0-6.847-1.681-6.847-5.805,0-4.685,3.484-5.686,7.007-6.367,3.764-.72,6.967-.48,6.967-3.043,0-2.962-2.443-3.443-4.6-3.443-2.882,0-5.005.881-5.165,3.924h-3.4c.2-5.125,4.164-6.927,8.769-6.927,3.723,0,7.767.841,7.767,5.686v10.65c0,1.6,0,2.322,1.081,2.322a2.924,2.924,0,0,0,1.041-.2Zm-5.525-10.611c-1.321.961-3.884,1-6.166,1.4-2.242.4-4.164,1.2-4.164,3.723,0,2.243,1.922,3.043,4,3.043,4.484,0,6.326-2.8,6.326-4.684Zm8.547-10.009h3.2v4.364h.08c1.642-3.323,3.924-4.965,7.608-4.845v3.6c-5.485,0-7.487,3.123-7.487,8.368v9.209h-3.4Zm13.56-7.888h3.4v10.69h.08c1.121-2.282,3.763-3.283,6.606-3.283,6.366,0,9.529,5.045,9.529,10.891s-3.123,10.77-9.449,10.77c-2.122,0-5.165-.8-6.686-3.243h-.08v2.763h-3.4Zm9.61,10.41c-4.565,0-6.327,3.924-6.327,7.808,0,4.084,1.842,7.847,6.527,7.847,4.644,0,6.206-3.963,6.206-8.007C754.652,1103.829,752.65,1100.065,748.246,1100.065Zm31.127,18.178h-3.2v-3.283h-.08a7.207,7.207,0,0,1-6.727,3.763c-5.445,0-7.127-3.123-7.127-7.567v-13.613h3.4v14.013a3.9,3.9,0,0,0,4.2,4.164c4.124,0,6.126-2.762,6.126-6.486v-11.691h3.4Zm4.983-20.7h3.2v4.364h.08c1.642-3.323,3.924-4.965,7.608-4.845v3.6c-5.486,0-7.488,3.123-7.488,8.368v9.209h-3.4Zm30.377,14.133c-.921,4.565-4.2,7.047-8.848,7.047-6.607,0-9.73-4.564-9.93-10.89,0-6.206,4.084-10.771,9.729-10.771,7.327,0,9.57,6.847,9.369,11.852h-15.5c-.12,3.6,1.922,6.806,6.447,6.806,2.8,0,4.764-1.361,5.365-4.044Zm-3.283-5.765a5.957,5.957,0,0,0-5.966-5.846c-3.563,0-5.685,2.683-5.926,5.846Zm9.188,5.8c.12,3.043,2.763,4,5.565,4,2.123,0,5-.48,5-3.083,0-2.642-3.363-3.083-6.766-3.843-3.364-.761-6.767-1.882-6.767-5.846,0-4.164,4.124-5.886,7.728-5.886,4.564,0,8.208,1.442,8.488,6.487h-3.4c-.241-2.643-2.563-3.484-4.805-3.484-2.042,0-4.4.561-4.4,2.643,0,2.442,3.6,2.842,6.766,3.6,3.4.761,6.767,1.882,6.767,5.886,0,4.925-4.605,6.526-8.809,6.526-4.644,0-8.568-1.882-8.768-7.007Zm34.243-9.729h-4.444v-4.444h4.444Zm-4.444,11.812h4.444v4.043c.04,3-1.321,5.406-4.4,6.287v-2a3.832,3.832,0,0,0,2.322-3.884h-2.362Zm22.04-24.144h12.532c5.685,0,8.768,3.163,8.768,8.448s-3.083,8.488-8.768,8.448H876.28v11.692h-3.8Zm3.8,13.693h7.448c4.284.04,6.246-1.841,6.246-5.245s-1.962-5.245-6.246-5.245H876.28Zm22.116-13.693h18.779v3.2H902.2v9.089h13.133v3.2H902.2v13.093h-3.8Zm43.06,8.608c-.8-4.044-4.044-6.086-8.008-6.086-6.806,0-9.689,5.606-9.689,11.572,0,6.526,2.883,11.971,9.729,11.971,5,0,7.888-3.523,8.248-8.248h3.8c-.721,7.127-5.165,11.452-12.372,11.452-8.889,0-13.213-6.567-13.213-14.895,0-8.288,4.725-15.055,13.533-15.055,5.966,0,10.891,3.2,11.772,9.289ZM966,1101.987h-4.444v-4.444H966Zm-4.444,11.812H966v4.444h-4.444Zm21.6-16.256h3.4v2.8h.081c1.121-2.282,3.763-3.283,6.606-3.283,6.366,0,9.529,5.045,9.529,10.891s-3.123,10.77-9.449,10.77c-2.122,0-5.165-.8-6.686-3.243h-.081v10.691h-3.4Zm9.61,2.522c-4.565,0-6.327,3.924-6.327,7.808,0,4.084,1.842,7.847,6.527,7.847,4.644,0,6.206-3.963,6.206-8.007C999.172,1103.829,997.17,1100.065,992.766,1100.065Zm31.647,11.611c-.921,4.565-4.2,7.047-8.848,7.047-6.607,0-9.73-4.564-9.93-10.89,0-6.206,4.084-10.771,9.73-10.771,7.327,0,9.569,6.847,9.369,11.852h-15.495c-.121,3.6,1.921,6.806,6.446,6.806,2.8,0,4.764-1.361,5.365-4.044Zm-3.283-5.765a5.956,5.956,0,0,0-5.966-5.846c-3.563,0-5.685,2.683-5.925,5.846Zm6.986-8.368h3.2v4.364h.08c1.642-3.323,3.924-4.965,7.608-4.845v3.6c-5.486,0-7.488,3.123-7.488,8.368v9.209h-3.4Zm14.841,3h-3.483v-3h3.483v-3.083c0-3.364,2-5.125,5.726-5.125a8.381,8.381,0,0,1,2.2.32v2.963a6.39,6.39,0,0,0-1.922-.28c-1.641,0-2.6.52-2.6,2.322v2.883h4v3h-4v17.7h-3.4Zm10.651-10.891h3.4v28.588h-3.4Zm25.805,28.588h-3.2v-3.283h-.08a7.207,7.207,0,0,1-6.727,3.763c-5.445,0-7.127-3.123-7.127-7.567v-13.613h3.4v14.013a3.9,3.9,0,0,0,4.2,4.164c4.124,0,6.126-2.762,6.126-6.486v-11.691h3.4Zm14.032-21.181c6.566,0,10.05,4.765,10.05,10.851,0,6.046-3.484,10.81-10.05,10.81s-10.05-4.764-10.05-10.81C1083.4,1101.827,1086.878,1097.062,1093.445,1097.062Zm0,18.658c3.563,0,6.446-2.8,6.446-7.807,0-5.045-2.883-7.848-6.446-7.848s-6.446,2.8-6.446,7.848C1087,1112.918,1089.881,1115.72,1093.445,1115.72Zm13.911-18.177h3.2v4.364h.08c1.642-3.323,3.924-4.965,7.608-4.845v3.6c-5.486,0-7.487,3.123-7.487,8.368v9.209h-3.4Zm21.645-.481c6.566,0,10.049,4.765,10.049,10.851,0,6.046-3.483,10.81-10.049,10.81s-10.05-4.764-10.05-10.81C1118.951,1101.827,1122.434,1097.062,1129,1097.062Zm0,18.658c3.563,0,6.446-2.8,6.446-7.807,0-5.045-2.883-7.848-6.446-7.848s-6.447,2.8-6.447,7.848C1122.554,1112.918,1125.437,1115.72,1129,1115.72Zm28.085-11.531a4.819,4.819,0,0,0-5.125-4.124c-4.925,0-6.446,3.884-6.446,8.088,0,3.8,1.721,7.567,6.045,7.567,3.284,0,5.246-1.921,5.686-5.045h3.483c-.76,5.045-3.923,8.048-9.129,8.048-6.326,0-9.689-4.4-9.689-10.57,0-6.206,3.2-11.091,9.77-11.091,4.684,0,8.448,2.2,8.928,7.127Zm25.764,13.974a4.591,4.591,0,0,1-2.442.56c-1.762,0-2.883-.961-2.883-3.2a9.186,9.186,0,0,1-7.287,3.2c-3.764,0-6.847-1.681-6.847-5.805,0-4.685,3.484-5.686,7.007-6.367,3.764-.72,6.967-.48,6.967-3.043,0-2.962-2.443-3.443-4.605-3.443-2.882,0-5,.881-5.165,3.924h-3.4c.2-5.125,4.164-6.927,8.769-6.927,3.723,0,7.767.841,7.767,5.686v10.65c0,1.6,0,2.322,1.081,2.322a2.924,2.924,0,0,0,1.041-.2Zm-5.525-10.611c-1.321.961-3.884,1-6.166,1.4-2.242.4-4.164,1.2-4.164,3.723,0,2.243,1.922,3.043,4,3.043,4.484,0,6.326-2.8,6.326-4.684Zm8.547-10.009h3.2v4.364h.081c1.641-3.323,3.923-4.965,7.607-4.845v3.6c-5.485,0-7.487,3.123-7.487,8.368v9.209h-3.4Zm13.56-7.888h3.4v10.69h.08c1.121-2.282,3.763-3.283,6.606-3.283,6.366,0,9.529,5.045,9.529,10.891s-3.123,10.77-9.449,10.77c-2.122,0-5.165-.8-6.686-3.243h-.08v2.763h-3.4Zm9.61,10.41c-4.565,0-6.327,3.924-6.327,7.808,0,4.084,1.842,7.847,6.527,7.847,4.644,0,6.206-3.963,6.206-8.007C1215.448,1103.829,1213.446,1100.065,1209.042,1100.065Zm31.127,18.178h-3.2v-3.283h-.08a7.207,7.207,0,0,1-6.727,3.763c-5.445,0-7.127-3.123-7.127-7.567v-13.613h3.4v14.013a3.9,3.9,0,0,0,4.2,4.164c4.124,0,6.126-2.762,6.126-6.486v-11.691h3.4Zm4.983-20.7h3.2v4.364h.08c1.642-3.323,3.924-4.965,7.608-4.845v3.6c-5.486,0-7.488,3.123-7.488,8.368v9.209h-3.4Zm30.377,14.133c-.921,4.565-4.2,7.047-8.849,7.047-6.606,0-9.729-4.564-9.929-10.89,0-6.206,4.084-10.771,9.729-10.771,7.327,0,9.57,6.847,9.369,11.852h-15.495c-.12,3.6,1.922,6.806,6.447,6.806,2.8,0,4.764-1.361,5.365-4.044Zm-3.283-5.765a5.957,5.957,0,0,0-5.966-5.846c-3.563,0-5.686,2.683-5.926,5.846Zm9.188,5.8c.12,3.043,2.763,4,5.566,4,2.122,0,5-.48,5-3.083,0-2.642-3.363-3.083-6.766-3.843-3.363-.761-6.767-1.882-6.767-5.846,0-4.164,4.124-5.886,7.728-5.886,4.564,0,8.208,1.442,8.488,6.487h-3.4c-.241-2.643-2.563-3.484-4.805-3.484-2.042,0-4.4.561-4.4,2.643,0,2.442,3.6,2.842,6.766,3.6,3.4.761,6.767,1.882,6.767,5.886,0,4.925-4.605,6.526-8.809,6.526-4.644,0-8.568-1.882-8.768-7.007Zm34.243-9.729h-4.444v-4.444h4.444Zm-4.444,11.812h4.444v4.043c.04,3-1.321,5.406-4.4,6.287v-2a3.833,3.833,0,0,0,2.322-3.884h-2.362Zm38.576-15.776c-.441-4.084-3.163-5.846-7.087-5.846-3.2,0-6.407,1.162-6.407,4.885,0,3.524,4.565,4.044,9.169,5.085,4.565,1.041,9.129,2.643,9.129,8.248,0,6.086-5.966,8.529-11.171,8.529-6.406,0-11.811-3.124-11.811-10.09h3.6c0,4.8,4,6.886,8.328,6.886,3.444,0,7.248-1.081,7.248-5.2,0-3.924-4.565-4.6-9.129-5.605s-9.169-2.322-9.169-7.568c0-5.805,5.165-8.368,10.37-8.368,5.846,0,10.29,2.763,10.53,9.049Zm9.383-8.368h18.779v3.2H1363v9.089h13.133v3.2H1363v13.093h-3.8Z" style="fill: #181716"/>
  <g style="clip-path: url(#clip-path)">
    <path d="M1388.681,1111.255a2.647,2.647,0,0,0-2.774-2.472c-3.381,0-3.917,3.73-4.01,6.272l.046.046a4.487,4.487,0,0,1,4.127-2.168c3.171,0,5.059,2.309,5.059,5.363,0,2.4-1.352,5.548-5.525,5.548-4.9,0-5.689-4.476-5.689-7.95,0-4.546,1.376-8.859,6.086-8.859a4.287,4.287,0,0,1,4.663,4.22Zm-6.411,7.158a3.392,3.392,0,1,0,6.761.023c0-2.053-1.072-3.754-3.334-3.754C1383.482,1114.682,1382.27,1116.338,1382.27,1118.413Z" style="fill: #181716"/>
  </g>
  <path d="M1410.879,1101.987h-4.445v-4.444h4.445Zm-4.445,11.812h4.445v4.444h-4.445Zm21.48-24.144h3.4v10.931h.08c1.121-2.483,4.044-3.524,6.526-3.524,5.446,0,7.127,3.123,7.127,7.568v13.613h-3.4v-14.014a3.9,3.9,0,0,0-4.2-4.164c-4.124,0-6.126,2.763-6.126,6.486v11.692h-3.4Zm39.9,22.021c-.921,4.565-4.2,7.047-8.849,7.047-6.606,0-9.729-4.564-9.929-10.89,0-6.206,4.084-10.771,9.729-10.771,7.327,0,9.569,6.847,9.369,11.852h-15.5c-.12,3.6,1.922,6.806,6.446,6.806,2.8,0,4.765-1.361,5.366-4.044Zm-3.283-5.765a5.957,5.957,0,0,0-5.966-5.846c-3.564,0-5.686,2.683-5.926,5.846Zm12.671,1.441-7.207-9.809h4.364l4.965,7.247,5.165-7.247h4.084l-7.127,9.529,8.008,11.171h-4.364l-5.766-8.569-5.765,8.569h-4.124Zm33.493,10.811a4.593,4.593,0,0,1-2.442.56c-1.762,0-2.883-.961-2.883-3.2a9.187,9.187,0,0,1-7.287,3.2c-3.764,0-6.847-1.681-6.847-5.805,0-4.685,3.483-5.686,7.007-6.367,3.763-.72,6.967-.48,6.967-3.043,0-2.962-2.443-3.443-4.605-3.443-2.883,0-5.005.881-5.165,3.924h-3.4c.2-5.125,4.164-6.927,8.768-6.927,3.724,0,7.768.841,7.768,5.686v10.65c0,1.6,0,2.322,1.081,2.322a2.927,2.927,0,0,0,1.041-.2Zm-5.525-10.611c-1.322.961-3.884,1-6.167,1.4-2.242.4-4.164,1.2-4.164,3.723,0,2.243,1.922,3.043,4,3.043,4.485,0,6.327-2.8,6.327-4.684Zm10.068-7.006h-3.483v-3h3.483v-3.083c0-3.364,2-5.125,5.726-5.125a8.369,8.369,0,0,1,2.2.32v2.963a6.386,6.386,0,0,0-1.922-.28c-1.641,0-2.6.52-2.6,2.322v2.883h4v3h-4v17.7h-3.4Zm10.651-10.891h3.4v28.588h-3.4Zm25.805,28.588h-3.2v-3.283h-.08a7.207,7.207,0,0,1-6.727,3.763c-5.445,0-7.127-3.123-7.127-7.567v-13.613h3.4v14.013a3.9,3.9,0,0,0,4.2,4.164c4.124,0,6.126-2.762,6.126-6.486v-11.691h3.4Zm14.032-21.181c6.566,0,10.05,4.765,10.05,10.851,0,6.046-3.484,10.81-10.05,10.81s-10.05-4.764-10.05-10.81C1555.673,1101.827,1559.157,1097.062,1565.723,1097.062Zm0,18.658c3.563,0,6.446-2.8,6.446-7.807,0-5.045-2.883-7.848-6.446-7.848s-6.446,2.8-6.446,7.848C1559.277,1112.918,1562.16,1115.72,1565.723,1115.72Zm13.911-18.177h3.2v4.364h.08c1.641-3.323,3.923-4.965,7.607-4.845v3.6c-5.485,0-7.487,3.123-7.487,8.368v9.209h-3.4Zm30.577,20.7h-3.2v-3.283h-.08a7.207,7.207,0,0,1-6.727,3.763c-5.445,0-7.127-3.123-7.127-7.567v-13.613h3.4v14.013a3.9,3.9,0,0,0,4.2,4.164c4.124,0,6.126-2.762,6.126-6.486v-11.691h3.4Zm4.983-20.7h3.2v4.364h.08c1.642-3.323,3.924-4.965,7.608-4.845v3.6c-5.486,0-7.488,3.123-7.488,8.368v9.209h-3.4Zm30.373,14.133c-.921,4.565-4.2,7.047-8.848,7.047-6.607,0-9.73-4.564-9.93-10.89,0-6.206,4.084-10.771,9.729-10.771,7.327,0,9.57,6.847,9.369,11.852h-15.495c-.12,3.6,1.922,6.806,6.447,6.806,2.8,0,4.764-1.361,5.365-4.044Zm-3.283-5.765a5.957,5.957,0,0,0-5.966-5.846c-3.563,0-5.685,2.683-5.926,5.846Zm36.724,12.332h-3.4v-2.8h-.08c-1.121,2.282-3.764,3.283-6.607,3.283-6.366,0-9.529-5.045-9.529-10.89s3.123-10.771,9.449-10.771c2.122,0,5.165.8,6.687,3.243h.08v-10.65h3.4Zm-9.609-2.523c4.564,0,6.326-3.923,6.326-7.807,0-4.084-1.842-7.848-6.527-7.848-4.644,0-6.206,3.964-6.206,8.008C1662.992,1111.957,1664.994,1115.72,1669.4,1115.72Zm32.488-4.044c-.921,4.565-4.2,7.047-8.848,7.047-6.607,0-9.73-4.564-9.93-10.89,0-6.206,4.084-10.771,9.73-10.771,7.327,0,9.569,6.847,9.369,11.852h-15.5c-.121,3.6,1.921,6.806,6.446,6.806,2.8,0,4.764-1.361,5.365-4.044Zm-3.283-5.765a5.956,5.956,0,0,0-5.966-5.846c-3.563,0-5.685,2.683-5.925,5.846Zm20.308,5.8c.12,3.043,2.763,4,5.566,4,2.122,0,5-.48,5-3.083,0-2.642-3.364-3.083-6.767-3.843-3.363-.761-6.767-1.882-6.767-5.846,0-4.164,4.124-5.886,7.728-5.886,4.564,0,8.208,1.442,8.488,6.487h-3.4c-.24-2.643-2.563-3.484-4.8-3.484-2.042,0-4.4.561-4.4,2.643,0,2.442,3.6,2.842,6.766,3.6,3.4.761,6.767,1.882,6.767,5.886,0,4.925-4.6,6.526-8.809,6.526-4.644,0-8.568-1.882-8.768-7.007Zm26.847-14.654c6.566,0,10.05,4.765,10.05,10.851,0,6.046-3.484,10.81-10.05,10.81s-10.05-4.764-10.05-10.81C1735.709,1101.827,1739.193,1097.062,1745.759,1097.062Zm0,18.658c3.563,0,6.446-2.8,6.446-7.807,0-5.045-2.883-7.848-6.446-7.848s-6.446,2.8-6.446,7.848C1739.313,1112.918,1742.2,1115.72,1745.759,1115.72Zm31.168,2.523h-3.2v-3.283h-.08a7.206,7.206,0,0,1-6.727,3.763c-5.445,0-7.127-3.123-7.127-7.567v-13.613h3.4v14.013a3.9,3.9,0,0,0,4.2,4.164c4.124,0,6.126-2.762,6.126-6.486v-11.691h3.4Zm6.505-17.7h-3.484v-3h3.484v-3.083c0-3.364,2-5.125,5.725-5.125a8.369,8.369,0,0,1,2.2.32v2.963a6.384,6.384,0,0,0-1.921-.28c-1.642,0-2.6.52-2.6,2.322v2.883h4v3h-4v17.7h-3.4Zm10.318-3h3.2v4.364h.08c1.641-3.323,3.924-4.965,7.607-4.845v3.6c-5.485,0-7.487,3.123-7.487,8.368v9.209h-3.4Zm30.378,14.133c-.921,4.565-4.2,7.047-8.849,7.047-6.607,0-9.73-4.564-9.93-10.89,0-6.206,4.084-10.771,9.73-10.771,7.327,0,9.569,6.847,9.369,11.852h-15.5c-.12,3.6,1.922,6.806,6.446,6.806,2.8,0,4.765-1.361,5.365-4.044Zm-3.284-5.765a5.956,5.956,0,0,0-5.965-5.846c-3.564,0-5.686,2.683-5.926,5.846Zm4.144,20.26a33.131,33.131,0,0,0,5.285-18.458,33.757,33.757,0,0,0-5.285-18.739h2.6c3.844,6.006,6.286,11.732,6.286,18.739a31.492,31.492,0,0,1-6.286,18.458Z" style="fill: #181716"/>
  <g style="clip-path: url(#clip-path)">
    <g>
      <path d="M1032.1,118.464c-.528-4.9-3.793-7.009-8.5-7.009-3.84,0-7.681,1.392-7.681,5.857,0,4.224,5.473,4.848,10.993,6.1,5.473,1.248,10.945,3.168,10.945,9.889,0,7.3-7.153,10.225-13.393,10.225-7.68,0-14.161-3.745-14.161-12.1h4.32c0,5.76,4.8,8.256,9.985,8.256,4.129,0,8.689-1.3,8.689-6.24,0-4.705-5.472-5.52-10.945-6.721s-10.993-2.784-10.993-9.072c0-6.961,6.192-10.033,12.433-10.033,7.008,0,12.337,3.312,12.625,10.849Z" style="fill: #181716"/>
      <path d="M1063.351,134.833c-1.1,5.472-5.041,8.449-10.609,8.449-7.92,0-11.665-5.473-11.9-13.057,0-7.441,4.9-12.913,11.665-12.913,8.785,0,11.473,8.208,11.233,14.209h-18.577c-.145,4.32,2.3,8.16,7.728,8.16,3.361,0,5.712-1.632,6.433-4.848Zm-3.936-6.912a7.142,7.142,0,0,0-7.153-7.009c-4.272,0-6.816,3.216-7.1,7.009Z" style="fill: #181716"/>
      <path d="M1067.716,108.431h4.08v34.275h-4.08Z" style="fill: #181716"/>
      <path d="M1088.357,117.312c7.872,0,12.049,5.712,12.049,13.008,0,7.249-4.177,12.962-12.049,12.962s-12.049-5.713-12.049-12.962C1076.308,123.024,1080.484,117.312,1088.357,117.312Zm0,22.369c4.272,0,7.728-3.36,7.728-9.361,0-6.048-3.456-9.408-7.728-9.408s-7.729,3.36-7.729,9.408C1080.628,136.321,1084.084,139.681,1088.357,139.681Z" style="fill: #181716"/>
      <path d="M1104.723,117.887h3.841v3.937h.1a8.636,8.636,0,0,1,8.064-4.512c6.528,0,8.545,3.744,8.545,9.072v16.322h-4.08V125.9a4.676,4.676,0,0,0-5.041-4.992c-4.944,0-7.345,3.312-7.345,7.777v14.017h-4.08Z" style="fill: #181716"/>
      <path d="M1142.643,108.431h4.08v34.275h-4.08Z" style="fill: #181716"/>
      <path d="M1173.749,134.833c-1.105,5.472-5.04,8.449-10.61,8.449-7.92,0-11.665-5.473-11.9-13.057,0-7.441,4.9-12.913,11.665-12.913,8.784,0,11.473,8.208,11.232,14.209h-18.577c-.144,4.32,2.3,8.16,7.729,8.16,3.36,0,5.712-1.632,6.432-4.848Zm-3.937-6.912a7.141,7.141,0,0,0-7.152-7.009c-4.273,0-6.817,3.216-7.105,7.009Z" style="fill: #181716"/>
      <path d="M1189.489,117.887h4.081v3.361h.1c1.343-2.737,4.512-3.936,7.92-3.936,7.633,0,11.425,6.048,11.425,13.057s-3.744,12.913-11.329,12.913c-2.544,0-6.192-.96-8.016-3.889h-.1v12.818h-4.081Zm11.521,3.025c-5.472,0-7.585,4.7-7.585,9.361,0,4.9,2.208,9.408,7.826,9.408,5.568,0,7.44-4.752,7.44-9.6C1208.691,125.424,1206.291,120.912,1201.01,120.912Z" style="fill: #181716"/>
      <path d="M1228.034,117.312c7.872,0,12.049,5.712,12.049,13.008,0,7.249-4.177,12.962-12.049,12.962s-12.049-5.713-12.049-12.962C1215.985,123.024,1220.161,117.312,1228.034,117.312Zm0,22.369c4.272,0,7.728-3.36,7.728-9.361,0-6.048-3.456-9.408-7.728-9.408s-7.729,3.36-7.729,9.408C1220.305,136.321,1223.761,139.681,1228.034,139.681Z" style="fill: #181716"/>
      <path d="M1250.065,117.887h4.945v3.6h-4.945V136.9c0,1.872.528,2.209,3.072,2.209h1.873v3.6h-3.121c-4.223,0-5.9-.865-5.9-5.425V121.488h-4.225v-3.6h4.225v-7.44h4.08Z" style="fill: #181716"/>
      <path d="M1280.209,134.833c-1.1,5.472-5.04,8.449-10.609,8.449-7.92,0-11.665-5.473-11.9-13.057,0-7.441,4.9-12.913,11.665-12.913,8.784,0,11.473,8.208,11.232,14.209h-18.577c-.144,4.32,2.3,8.16,7.729,8.16,3.36,0,5.712-1.632,6.432-4.848Zm-3.936-6.912a7.141,7.141,0,0,0-7.152-7.009c-4.273,0-6.817,3.216-7.105,7.009Z" style="fill: #181716"/>
      <path d="M1284.335,117.887h3.84v3.937h.1a8.639,8.639,0,0,1,8.064-4.512c6.529,0,8.545,3.744,8.545,9.072v16.322h-4.08V125.9a4.676,4.676,0,0,0-5.041-4.992c-4.944,0-7.344,3.312-7.344,7.777v14.017h-4.081Z" style="fill: #181716"/>
      <path d="M1316.208,117.887h4.945v3.6h-4.945V136.9c0,1.872.528,2.209,3.072,2.209h1.873v3.6h-3.121c-4.224,0-5.9-.865-5.9-5.425V121.488H1307.9v-3.6h4.224v-7.44h4.081Z" style="fill: #181716"/>
      <path d="M1329.5,113.423h-4.08v-4.992h4.08Zm-4.08,4.464h4.08v24.819h-4.08Z" style="fill: #181716"/>
      <path d="M1356.528,134.833c-1.105,5.472-5.04,8.449-10.61,8.449-7.919,0-11.665-5.473-11.9-13.057,0-7.441,4.9-12.913,11.665-12.913,8.784,0,11.473,8.208,11.233,14.209h-18.578c-.144,4.32,2.3,8.16,7.729,8.16,3.36,0,5.712-1.632,6.433-4.848Zm-3.937-6.912a7.141,7.141,0,0,0-7.152-7.009c-4.272,0-6.816,3.216-7.105,7.009Z" style="fill: #181716"/>
      <path d="M1360.893,108.431h4.08v34.275h-4.08Z" style="fill: #181716"/>
      <path d="M1404.526,142.706h-4.08v-3.361h-.1c-1.345,2.737-4.513,3.937-7.921,3.937-7.633,0-11.425-6.049-11.425-13.057s3.745-12.913,11.33-12.913c2.543,0,6.192.96,8.016,3.888h.1V108.431h4.08Zm-11.521-3.025c5.473,0,7.584-4.7,7.584-9.361,0-4.9-2.208-9.408-7.824-9.408-5.568,0-7.44,4.752-7.44,9.6C1385.325,135.169,1387.724,139.681,1393.005,139.681Z" style="fill: #181716"/>
      <path d="M1431.5,134.833c-1.1,5.472-5.041,8.449-10.609,8.449-7.92,0-11.665-5.473-11.9-13.057,0-7.441,4.9-12.913,11.665-12.913,8.784,0,11.473,8.208,11.232,14.209h-18.577c-.144,4.32,2.3,8.16,7.729,8.16,3.36,0,5.712-1.632,6.432-4.848Zm-3.936-6.912a7.141,7.141,0,0,0-7.152-7.009c-4.273,0-6.817,3.216-7.105,7.009Z" style="fill: #181716"/>
      <path d="M1447,117.887h3.84v5.233h.1c1.969-3.984,4.7-5.952,9.121-5.808v4.32c-6.576,0-8.976,3.744-8.976,10.033v11.041H1447Z" style="fill: #181716"/>
      <path d="M1482.909,134.833c-1.105,5.472-5.04,8.449-10.61,8.449-7.92,0-11.665-5.473-11.9-13.057,0-7.441,4.9-12.913,11.665-12.913,8.784,0,11.473,8.208,11.232,14.209h-18.577c-.144,4.32,2.3,8.16,7.729,8.16,3.36,0,5.712-1.632,6.432-4.848Zm-3.937-6.912a7.141,7.141,0,0,0-7.152-7.009c-4.273,0-6.817,3.216-7.105,7.009Zm-6.192-20.306h5.232l-6.288,6.864h-3.072Z" style="fill: #181716"/>
      <path d="M1503.884,125.856a5.777,5.777,0,0,0-6.144-4.944c-5.9,0-7.729,4.656-7.729,9.7,0,4.56,2.064,9.072,7.248,9.072,3.937,0,6.289-2.3,6.817-6.048h4.176c-.912,6.048-4.7,9.649-10.945,9.649-7.584,0-11.616-5.281-11.616-12.673,0-7.441,3.84-13.3,11.713-13.3,5.616,0,10.129,2.64,10.7,8.544Z" style="fill: #181716"/>
      <path d="M1512.33,108.431h4.08v13.105h.1c1.344-2.976,4.848-4.224,7.825-4.224,6.528,0,8.545,3.744,8.545,9.072v16.322H1528.8V125.9a4.676,4.676,0,0,0-5.041-4.992c-4.944,0-7.344,3.312-7.344,7.777v14.017h-4.08Z" style="fill: #181716"/>
      <path d="M1560.524,142.61a5.509,5.509,0,0,1-2.929.672c-2.112,0-3.456-1.152-3.456-3.84a11.014,11.014,0,0,1-8.737,3.84c-4.512,0-8.208-2.016-8.208-6.961,0-5.616,4.176-6.816,8.4-7.632,4.513-.865,8.353-.577,8.353-3.649,0-3.552-2.928-4.128-5.521-4.128-3.456,0-6,1.056-6.192,4.7h-4.08c.24-6.144,4.992-8.3,10.513-8.3,4.463,0,9.312,1.007,9.312,6.816V136.9c0,1.921,0,2.784,1.3,2.784a3.521,3.521,0,0,0,1.249-.239Zm-6.625-12.721c-1.584,1.152-4.656,1.2-7.393,1.68-2.688.48-4.992,1.44-4.992,4.464,0,2.688,2.3,3.648,4.8,3.648,5.377,0,7.585-3.36,7.585-5.616Z" style="fill: #181716"/>
      <path d="M1584.379,142.706h-3.84v-3.937h-.1a8.642,8.642,0,0,1-8.065,4.513c-6.528,0-8.544-3.745-8.544-9.073V117.887h4.08v16.8a4.675,4.675,0,0,0,5.041,4.992c4.944,0,7.344-3.312,7.344-7.776V117.887h4.08Z" style="fill: #181716"/>
      <path d="M1591.721,121.488h-4.176v-3.6h4.176v-3.7c0-4.032,2.4-6.144,6.865-6.144a10.026,10.026,0,0,1,2.64.384v3.552a7.653,7.653,0,0,0-2.3-.336c-1.967,0-3.12.624-3.12,2.784v3.456h4.8v3.6h-4.8v21.218h-4.081Z" style="fill: #181716"/>
      <path d="M1604.537,121.488h-4.176v-3.6h4.176v-3.7c0-4.032,2.4-6.144,6.865-6.144a10.038,10.038,0,0,1,2.64.384v3.552a7.653,7.653,0,0,0-2.3-.336c-1.969,0-3.12.624-3.12,2.784v3.456h4.8v3.6h-4.8v21.218h-4.081Z" style="fill: #181716"/>
      <path d="M1637.754,134.833c-1.1,5.472-5.04,8.449-10.609,8.449-7.92,0-11.665-5.473-11.9-13.057,0-7.441,4.9-12.913,11.665-12.913,8.784,0,11.472,8.208,11.232,14.209h-18.577c-.144,4.32,2.3,8.16,7.729,8.16,3.36,0,5.711-1.632,6.432-4.848Zm-3.936-6.912a7.141,7.141,0,0,0-7.152-7.009c-4.273,0-6.817,3.216-7.105,7.009Z" style="fill: #181716"/>
      <path d="M1641.879,117.887h3.841v3.649h.1a9.148,9.148,0,0,1,8.017-4.224c3.024,0,5.808,1.2,6.816,4.224a9.184,9.184,0,0,1,7.776-4.224c4.946,0,8.257,2.064,8.257,7.2v18.194h-4.08V126.432c0-3.072-.816-5.52-4.8-5.52-3.935,0-6.48,2.5-6.48,6.336v15.458h-4.08V126.432c0-3.216-1.008-5.52-4.657-5.52a6.694,6.694,0,0,0-6.625,6.336v15.458h-4.08Z" style="fill: #181716"/>
      <path d="M1703.465,134.833c-1.1,5.472-5.04,8.449-10.609,8.449-7.92,0-11.665-5.473-11.9-13.057,0-7.441,4.9-12.913,11.665-12.913,8.784,0,11.472,8.208,11.232,14.209h-18.577c-.145,4.32,2.3,8.16,7.729,8.16,3.36,0,5.711-1.632,6.432-4.848Zm-3.936-6.912a7.142,7.142,0,0,0-7.153-7.009c-4.272,0-6.816,3.216-7.1,7.009Z" style="fill: #181716"/>
      <path d="M1707.59,117.887h3.841v3.937h.1a8.637,8.637,0,0,1,8.064-4.512c6.529,0,8.545,3.744,8.545,9.072v16.322h-4.08V125.9a4.676,4.676,0,0,0-5.041-4.992c-4.944,0-7.345,3.312-7.345,7.777v14.017h-4.08Z" style="fill: #181716"/>
      <path d="M1739.415,117.887h4.945v3.6h-4.945V136.9c0,1.872.528,2.209,3.072,2.209h1.873v3.6h-3.121c-4.224,0-5.9-.865-5.9-5.425V121.488h-4.224v-3.6h4.224v-7.44h4.081Z" style="fill: #181716"/>
      <path d="M1781.32,140.593c0,8.065-3.7,12.194-11.522,12.194-4.656,0-10.032-1.873-10.272-7.3h4.08c.192,2.976,3.744,4.032,6.433,4.032,5.328,0,7.44-3.84,7.44-9.409v-1.632h-.1c-1.344,3.025-4.608,4.513-7.728,4.513-7.393,0-11.089-5.809-11.089-12.577,0-5.857,2.88-13.105,11.473-13.105a8.1,8.1,0,0,1,7.392,4.128h.048v-3.553h3.841Zm-4.032-10.8c0-4.369-1.921-8.881-7.057-8.881-5.232,0-7.345,4.272-7.345,9.025,0,4.464,1.632,9.456,7.008,9.456S1777.288,134.449,1777.288,129.793Z" style="fill: #181716"/>
      <path d="M1787.222,108.431h4.08v34.275h-4.08Z" style="fill: #181716"/>
      <path d="M1807.862,117.312c7.872,0,12.049,5.712,12.049,13.008,0,7.249-4.177,12.962-12.049,12.962s-12.049-5.713-12.049-12.962C1795.813,123.024,1799.989,117.312,1807.862,117.312Zm0,22.369c4.272,0,7.728-3.36,7.728-9.361,0-6.048-3.456-9.408-7.728-9.408s-7.729,3.36-7.729,9.408C1800.133,136.321,1803.589,139.681,1807.862,139.681Z" style="fill: #181716"/>
      <path d="M1824.372,108.431h4.081v12.817h.1c1.344-2.737,4.513-3.936,7.921-3.936,7.633,0,11.425,6.048,11.425,13.057s-3.744,12.913-11.329,12.913c-2.544,0-6.192-.96-8.017-3.889h-.1v3.313h-4.081Zm11.521,12.481c-5.473,0-7.585,4.7-7.585,9.361,0,4.9,2.208,9.408,7.825,9.408,5.569,0,7.441-4.752,7.441-9.6C1843.574,125.424,1841.173,120.912,1835.893,120.912Z" style="fill: #181716"/>
      <path d="M1874.2,142.61a5.509,5.509,0,0,1-2.929.672c-2.112,0-3.456-1.152-3.456-3.84a11.014,11.014,0,0,1-8.737,3.84c-4.512,0-8.208-2.016-8.208-6.961,0-5.616,4.175-6.816,8.4-7.632,4.513-.865,8.353-.577,8.353-3.649,0-3.552-2.928-4.128-5.521-4.128-3.456,0-6,1.056-6.192,4.7h-4.08c.24-6.144,4.992-8.3,10.512-8.3,4.464,0,9.313,1.007,9.313,6.816V136.9c0,1.921,0,2.784,1.3,2.784a3.525,3.525,0,0,0,1.249-.239Zm-6.625-12.721c-1.584,1.152-4.656,1.2-7.393,1.68-2.688.48-4.992,1.44-4.992,4.464,0,2.688,2.3,3.648,4.8,3.648,5.377,0,7.585-3.36,7.585-5.616Z" style="fill: #181716"/>
      <path d="M1877.748,108.431h4.08v34.275h-4.08Z" style="fill: #181716"/>
    </g>
  </g>
  <path d="M1369.915,190.61a5.5,5.5,0,0,1-2.926.672c-2.111,0-3.454-1.152-3.454-3.838a11.01,11.01,0,0,1-8.732,3.838c-4.509,0-8.2-2.015-8.2-6.956,0-5.613,4.174-6.813,8.395-7.628,4.51-.864,8.348-.576,8.348-3.646,0-3.55-2.927-4.126-5.517-4.126-3.454,0-6,1.055-6.189,4.7h-4.078c.24-6.14,4.99-8.3,10.507-8.3,4.461,0,9.306,1.007,9.306,6.812V184.9c0,1.919,0,2.783,1.3,2.783a3.5,3.5,0,0,0,1.247-.24ZM1363.3,177.9c-1.583,1.151-4.654,1.2-7.388,1.679-2.687.48-4.99,1.439-4.99,4.462,0,2.686,2.3,3.646,4.8,3.646,5.373,0,7.58-3.358,7.58-5.613Zm-11.946-22.26h5.229l4.126,6.861h-3.07Zm47.323,35.069h-4.078V166.335h-8.827v-3.262c4.653,0,8.875-1.247,9.786-6.38h3.119Zm22.418-34.013c10.65,0,11.321,9.786,11.321,17.318,0,7.484-.671,17.271-11.321,17.271s-11.322-9.787-11.322-17.271C1409.768,166.479,1410.439,156.693,1421.09,156.693Zm0,30.991c6.956,0,7-8.636,7-13.721,0-5.037-.048-13.672-7-13.672s-7,8.635-7,13.672C1414.085,179.048,1414.133,187.684,1421.09,187.684Zm26.16-30.991c10.65,0,11.321,9.786,11.321,17.318,0,7.484-.671,17.271-11.321,17.271s-11.322-9.787-11.322-17.271C1435.928,166.479,1436.6,156.693,1447.25,156.693Zm0,30.991c6.956,0,7-8.636,7-13.721,0-5.037-.048-13.672-7-13.672s-7.005,8.635-7.005,13.672C1440.245,179.048,1440.293,187.684,1447.25,187.684Zm49.342,2.926a5.5,5.5,0,0,1-2.926.672c-2.111,0-3.455-1.152-3.455-3.838a11.006,11.006,0,0,1-8.731,3.838c-4.509,0-8.2-2.015-8.2-6.956,0-5.613,4.173-6.813,8.395-7.628,4.51-.864,8.348-.576,8.348-3.646,0-3.55-2.927-4.126-5.517-4.126-3.455,0-6,1.055-6.189,4.7h-4.078c.24-6.14,4.989-8.3,10.506-8.3,4.462,0,9.307,1.007,9.307,6.812V184.9c0,1.919,0,2.783,1.3,2.783a3.5,3.5,0,0,0,1.247-.24Zm-6.62-12.713c-1.584,1.151-4.654,1.2-7.388,1.679-2.687.48-4.99,1.439-4.99,4.462,0,2.686,2.3,3.646,4.8,3.646,5.373,0,7.58-3.358,7.58-5.613Zm9.9-11.993h3.838v3.934h.1a8.634,8.634,0,0,1,8.06-4.51c6.524,0,8.539,3.742,8.539,9.067v16.311h-4.078V173.915a4.673,4.673,0,0,0-5.037-4.989c-4.941,0-7.34,3.31-7.34,7.772v14.008h-4.078Zm28.655,16.982c.144,3.646,3.31,4.8,6.668,4.8,2.543,0,6-.576,6-3.694,0-3.167-4.03-3.694-8.108-4.606-4.03-.911-8.107-2.254-8.107-7,0-4.989,4.941-7.052,9.259-7.052,5.469,0,9.834,1.727,10.17,7.772h-4.078c-.288-3.167-3.07-4.174-5.757-4.174-2.446,0-5.277.672-5.277,3.166,0,2.927,4.318,3.406,8.108,4.318,4.078.911,8.107,2.255,8.107,7.052,0,5.9-5.517,7.82-10.554,7.82-5.565,0-10.266-2.255-10.506-8.4Z" style="fill: #181716"/>
  <g style="clip-path: url(#clip-path)">
    <path d="M484.339,685.7,444.891,405a298.507,298.507,0,0,1,39.448-2.76Z" style="fill: #e7eaf1"/>
    <path d="M484.339,685.7,378.155,422.876A261.769,261.769,0,0,1,444.891,405Z" style="fill: #c5cddc"/>
    <path d="M484.339,685.7,449.8,967.052C294.419,947.972,183.923,806.54,203,651.156c12.968-105.664,76.456-188.4,175.152-228.28Z" style="fill: #819ab5"/>
    <path d="M484.339,685.7V402.236c156.544,0,283.448,126.912,283.448,283.464s-126.9,283.464-283.448,283.464a261.145,261.145,0,0,1-34.544-2.112Z" style="fill: #5f83a2"/>
    <path d="M484.325,841.605a155.908,155.908,0,1,0-155.9-155.9,155.9,155.9,0,0,0,155.9,155.9" style="fill: #fff"/>
  </g>
  <g>
    <path d="M685.405,710.835c-.8-4.039-4.039-6.079-8-6.079-6.8,0-9.678,5.6-9.678,11.558,0,6.519,2.879,11.958,9.718,11.958,5,0,7.879-3.519,8.239-8.238h3.8c-.719,7.118-5.159,11.437-12.358,11.437-8.878,0-13.2-6.558-13.2-14.877,0-8.279,4.719-15.038,13.517-15.038,5.959,0,10.879,3.2,11.759,9.279Z" style="fill: #181716"/>
    <path d="M706.286,701.556c9.078,0,13.677,7.2,13.677,14.958s-4.6,14.957-13.677,14.957-13.678-7.2-13.678-14.957S697.208,701.556,706.286,701.556Zm0,26.716c6.959,0,9.878-6,9.878-11.758s-2.919-11.758-9.878-11.758-9.878,6-9.878,11.758S699.327,728.272,706.286,728.272Z" style="fill: #181716"/>
  </g>
  <path d="M722.516,725.433c-.163-3.357,1.819-5.851,5.316-5.851,2.891,0,5.176,1.678,5.176,4.756,0,2.915-1.958,4.383-4.01,5.666-2.075,1.258-4.244,2.307-4.64,4.359h8.487v1.749h-10.8c.326-3.917,2.308-5.316,4.639-6.762,2.8-1.724,4.221-2.751,4.221-5.036a3.012,3.012,0,0,0-3.195-2.984c-2.308,0-3.287,2.122-3.217,4.1Z" style="fill: #181716"/>
  <g>
    <path d="M694.889,753.916H683.451l-1.52,8.159.08.08a7.173,7.173,0,0,1,5.279-2.04c5.039,0,9.158,3.239,9.158,9.718,0,4.8-3.319,9.438-9.918,9.438-4.919,0-8.919-3-9.038-8.118h3.4c.2,2.92,2.56,5.119,5.959,5.119,3.239,0,6-2.2,6-6.719a6.141,6.141,0,0,0-6.4-6.439,6.806,6.806,0,0,0-5.279,2.68l-2.92-.161,2.64-14.716h14Z" style="fill: #181716"/>
    <path d="M700.092,760.474c-.28-5.759,3.119-10.038,9.118-10.038,4.959,0,8.879,2.88,8.879,8.159,0,5-3.359,7.519-6.879,9.718-3.56,2.16-7.279,3.96-7.959,7.48h14.558v3H699.292c.56-6.719,3.959-9.119,7.959-11.6,4.8-2.96,7.238-4.72,7.238-8.639a5.166,5.166,0,0,0-5.479-5.119c-3.959,0-5.639,3.639-5.519,7.038Z" style="fill: #181716"/>
  </g>
  <g>
    <path d="M257.249,672.835c-.8-4.039-4.04-6.079-8-6.079-6.8,0-9.678,5.6-9.678,11.558,0,6.519,2.879,11.958,9.718,11.958,5,0,7.879-3.519,8.239-8.238h3.8c-.72,7.118-5.159,11.437-12.358,11.437-8.878,0-13.2-6.558-13.2-14.877,0-8.279,4.72-15.038,13.518-15.038,5.959,0,10.878,3.2,11.758,9.279Z" style="fill: #181716"/>
    <path d="M266.052,664.236h3.8v12.278h15.038V664.236h3.8v28.556h-3.8V679.714H269.851v13.078h-3.8Z" style="fill: #181716"/>
  </g>
  <path d="M301.568,692.508h2.238v1.749h-2.238v3.871H299.7v-3.871h-7.251v-1.912l7.53-10.748h1.586Zm-1.865,0v-8.089h-.047l-5.5,8.089Z" style="fill: #181716"/>
  <g>
    <path d="M263.916,731.169h3.839v3h-3.839v6.638h-3.2v-6.638H248.278v-3.28L261.2,712.452h2.72Zm-3.2,0V717.292h-.08L251.2,731.169Z" style="fill: #181716"/>
    <path d="M271.158,722.49c-.28-5.759,3.12-10.038,9.118-10.038,4.96,0,8.879,2.88,8.879,8.159,0,5-3.359,7.519-6.879,9.718-3.559,2.16-7.278,3.96-7.959,7.479h14.558v3H270.358c.56-6.718,3.959-9.118,7.959-11.6,4.8-2.96,7.239-4.72,7.239-8.639a5.166,5.166,0,0,0-5.479-5.119c-3.96,0-5.639,3.638-5.519,7.038Z" style="fill: #181716"/>
  </g>
  <g style="clip-path: url(#clip-path-5)">
    <g>
      <path d="M68.6,116.237c-.528-4.9-3.792-7.008-8.5-7.008-3.841,0-7.681,1.392-7.681,5.856,0,4.224,5.473,4.848,10.993,6.1,5.472,1.248,10.945,3.169,10.945,9.889,0,7.3-7.153,10.225-13.393,10.225-7.681,0-14.161-3.744-14.161-12.1h4.32c0,5.761,4.8,8.257,9.985,8.257,4.128,0,8.688-1.3,8.688-6.24,0-4.7-5.472-5.521-10.944-6.721s-10.994-2.784-10.994-9.073c0-6.96,6.193-10.033,12.434-10.033,7.008,0,12.337,3.312,12.625,10.849Z" style="fill: #181716"/>
      <path d="M99.891,132.607c-1.1,5.472-5.04,8.448-10.609,8.448-7.921,0-11.665-5.472-11.9-13.057,0-7.441,4.9-12.913,11.665-12.913,8.785,0,11.473,8.209,11.233,14.209H81.7c-.144,4.32,2.3,8.161,7.729,8.161,3.361,0,5.713-1.632,6.433-4.848Zm-3.936-6.913a7.142,7.142,0,0,0-7.153-7.009c-4.272,0-6.817,3.217-7.105,7.009Z" style="fill: #181716"/>
      <path d="M104.257,106.2h4.08v34.275h-4.08Z" style="fill: #181716"/>
      <path d="M124.9,115.085c7.873,0,12.049,5.713,12.049,13.009,0,7.249-4.176,12.961-12.049,12.961s-12.049-5.712-12.049-12.961C112.848,120.8,117.024,115.085,124.9,115.085Zm0,22.37c4.272,0,7.729-3.361,7.729-9.361,0-6.048-3.457-9.409-7.729-9.409s-7.729,3.361-7.729,9.409C117.168,134.094,120.625,137.455,124.9,137.455Z" style="fill: #181716"/>
      <path d="M141.264,115.661h3.84V119.6h.1a8.639,8.639,0,0,1,8.065-4.512c6.528,0,8.545,3.744,8.545,9.073v16.321h-4.081v-16.8a4.676,4.676,0,0,0-5.041-4.993c-4.944,0-7.344,3.313-7.344,7.777v14.017h-4.08Z" style="fill: #181716"/>
      <path d="M179.184,106.2h4.08v34.275h-4.08Z" style="fill: #181716"/>
      <path d="M210.289,132.607c-1.1,5.472-5.041,8.448-10.609,8.448-7.921,0-11.665-5.472-11.906-13.057,0-7.441,4.9-12.913,11.665-12.913,8.785,0,11.474,8.209,11.233,14.209H192.1c-.144,4.32,2.3,8.161,7.729,8.161,3.36,0,5.712-1.632,6.432-4.848Zm-3.937-6.913a7.141,7.141,0,0,0-7.152-7.009c-4.273,0-6.817,3.217-7.1,7.009Z" style="fill: #181716"/>
      <path d="M226.078,115.661h4.08v3.36h.1c1.345-2.736,4.513-3.936,7.921-3.936,7.633,0,11.425,6.048,11.425,13.057s-3.744,12.913-11.329,12.913c-2.544,0-6.192-.96-8.017-3.888h-.1v12.817h-4.08Zm11.521,3.024c-5.473,0-7.584,4.7-7.584,9.361,0,4.9,2.208,9.409,7.824,9.409,5.569,0,7.441-4.753,7.441-9.6C245.28,123.2,242.879,118.685,237.6,118.685Z" style="fill: #181716"/>
      <path d="M264.623,115.085c7.872,0,12.048,5.713,12.048,13.009,0,7.249-4.176,12.961-12.048,12.961s-12.05-5.712-12.05-12.961C252.573,120.8,256.75,115.085,264.623,115.085Zm0,22.37c4.272,0,7.728-3.361,7.728-9.361,0-6.048-3.456-9.409-7.728-9.409s-7.729,3.361-7.729,9.409C256.894,134.094,260.35,137.455,264.623,137.455Z" style="fill: #181716"/>
      <path d="M286.654,115.661H291.6v3.6h-4.944v15.41c0,1.872.528,2.208,3.072,2.208H291.6v3.6h-3.12c-4.225,0-5.905-.864-5.905-5.424V119.261h-4.224v-3.6h4.224V108.22h4.081Z" style="fill: #181716"/>
      <path d="M316.8,132.607c-1.1,5.472-5.04,8.448-10.609,8.448-7.92,0-11.665-5.472-11.905-13.057,0-7.441,4.9-12.913,11.665-12.913,8.785,0,11.473,8.209,11.233,14.209H298.605c-.145,4.32,2.3,8.161,7.729,8.161,3.36,0,5.712-1.632,6.432-4.848Zm-3.936-6.913a7.141,7.141,0,0,0-7.153-7.009c-4.272,0-6.816,3.217-7.1,7.009Z" style="fill: #181716"/>
      <path d="M320.924,115.661h3.84V119.6h.1a8.64,8.64,0,0,1,8.065-4.512c6.529,0,8.545,3.744,8.545,9.073v16.321h-4.081v-16.8a4.676,4.676,0,0,0-5.04-4.993c-4.945,0-7.345,3.313-7.345,7.777v14.017h-4.08Z" style="fill: #181716"/>
      <path d="M352.749,115.661h4.944v3.6h-4.944v15.41c0,1.872.527,2.208,3.072,2.208h1.872v3.6h-3.12c-4.225,0-5.9-.864-5.9-5.424V119.261h-4.224v-3.6h4.224V108.22h4.081Z" style="fill: #181716"/>
      <path d="M366.043,111.2h-4.08V106.2h4.08Zm-4.08,4.465h4.08v24.818h-4.08Z" style="fill: #181716"/>
      <path d="M393.068,132.607c-1.1,5.472-5.04,8.448-10.609,8.448-7.92,0-11.665-5.472-11.905-13.057,0-7.441,4.9-12.913,11.665-12.913,8.785,0,11.473,8.209,11.233,14.209H374.875c-.145,4.32,2.3,8.161,7.729,8.161,3.36,0,5.712-1.632,6.432-4.848Zm-3.936-6.913a7.141,7.141,0,0,0-7.152-7.009c-4.273,0-6.817,3.217-7.105,7.009Z" style="fill: #181716"/>
      <path d="M397.434,106.2h4.08v34.275h-4.08Z" style="fill: #181716"/>
      <path d="M441.019,140.479h-4.08v-3.36h-.1c-1.344,2.736-4.512,3.936-7.921,3.936-7.632,0-11.425-6.049-11.425-13.057s3.745-12.913,11.329-12.913c2.545,0,6.193.96,8.017,3.888h.1V106.2h4.08ZM429.5,137.455c5.473,0,7.585-4.7,7.585-9.361,0-4.9-2.208-9.409-7.825-9.409-5.568,0-7.441,4.753-7.441,9.6C421.817,132.943,424.218,137.455,429.5,137.455Z" style="fill: #181716"/>
      <path d="M468,132.607c-1.1,5.472-5.041,8.448-10.609,8.448-7.921,0-11.665-5.472-11.906-13.057,0-7.441,4.9-12.913,11.666-12.913,8.784,0,11.473,8.209,11.232,14.209H449.8c-.144,4.32,2.3,8.161,7.729,8.161,3.36,0,5.712-1.632,6.432-4.848Zm-3.937-6.913a7.141,7.141,0,0,0-7.152-7.009c-4.273,0-6.817,3.217-7.105,7.009Z" style="fill: #181716"/>
      <path d="M483.5,115.661h3.84v5.232h.1c1.967-3.984,4.7-5.952,9.12-5.808v4.32c-6.576,0-8.976,3.745-8.976,10.033v11.041H483.5Z" style="fill: #181716"/>
      <path d="M519.4,132.607c-1.1,5.472-5.04,8.448-10.609,8.448-7.92,0-11.665-5.472-11.9-13.057,0-7.441,4.9-12.913,11.665-12.913,8.785,0,11.473,8.209,11.233,14.209H501.208c-.145,4.32,2.3,8.161,7.729,8.161,3.36,0,5.712-1.632,6.432-4.848Zm-3.936-6.913a7.141,7.141,0,0,0-7.152-7.009c-4.273,0-6.817,3.217-7.1,7.009Zm-6.193-20.306h5.233l-6.289,6.865h-3.072Z" style="fill: #181716"/>
      <path d="M540.376,123.63a5.777,5.777,0,0,0-6.144-4.945c-5.9,0-7.729,4.656-7.729,9.7,0,4.561,2.064,9.073,7.249,9.073,3.936,0,6.288-2.3,6.816-6.049h4.177c-.912,6.049-4.705,9.649-10.945,9.649-7.585,0-11.617-5.28-11.617-12.673,0-7.44,3.84-13.3,11.713-13.3,5.616,0,10.128,2.64,10.705,8.545Z" style="fill: #181716"/>
      <path d="M548.822,106.2H552.9v13.105h.1c1.344-2.976,4.848-4.224,7.824-4.224,6.529,0,8.545,3.744,8.545,9.073v16.321h-4.08v-16.8a4.676,4.676,0,0,0-5.041-4.993c-4.944,0-7.344,3.313-7.344,7.777v14.017h-4.081Z" style="fill: #181716"/>
      <path d="M596.968,140.383a5.5,5.5,0,0,1-2.928.672c-2.112,0-3.456-1.152-3.456-3.84a11.014,11.014,0,0,1-8.737,3.84c-4.513,0-8.209-2.016-8.209-6.961,0-5.616,4.176-6.816,8.4-7.632,4.512-.864,8.353-.576,8.353-3.648,0-3.553-2.929-4.129-5.521-4.129-3.456,0-6,1.056-6.192,4.7H574.6c.239-6.145,4.992-8.305,10.512-8.305,4.465,0,9.313,1.008,9.313,6.817v12.769c0,1.92,0,2.784,1.3,2.784a3.5,3.5,0,0,0,1.248-.24Zm-6.624-12.721c-1.584,1.152-4.656,1.2-7.393,1.68-2.688.48-4.992,1.44-4.992,4.465,0,2.688,2.3,3.648,4.8,3.648,5.377,0,7.585-3.361,7.585-5.616Z" style="fill: #181716"/>
      <path d="M620.824,140.479h-3.841v-3.936h-.1a8.638,8.638,0,0,1-8.064,4.512c-6.529,0-8.545-3.744-8.545-9.072V115.661h4.08v16.8a4.676,4.676,0,0,0,5.04,4.992c4.945,0,7.345-3.312,7.345-7.777V115.661h4.081Z" style="fill: #181716"/>
      <path d="M628.118,119.261h-4.177v-3.6h4.177v-3.7c0-4.033,2.4-6.145,6.864-6.145a10.034,10.034,0,0,1,2.641.384v3.552a7.662,7.662,0,0,0-2.305-.335c-1.968,0-3.12.624-3.12,2.784v3.456H637v3.6h-4.8v21.218h-4.08Z" style="fill: #181716"/>
      <path d="M640.934,119.261h-4.177v-3.6h4.177v-3.7c0-4.033,2.4-6.145,6.864-6.145a10.032,10.032,0,0,1,2.64.384v3.552a7.647,7.647,0,0,0-2.3-.335c-1.968,0-3.12.624-3.12,2.784v3.456h4.8v3.6h-4.8v21.218h-4.08Z" style="fill: #181716"/>
      <path d="M674.151,132.607c-1.1,5.472-5.041,8.448-10.609,8.448-7.921,0-11.665-5.472-11.905-13.057,0-7.441,4.9-12.913,11.665-12.913,8.784,0,11.473,8.209,11.233,14.209H655.957c-.144,4.32,2.3,8.161,7.729,8.161,3.36,0,5.712-1.632,6.433-4.848Zm-3.937-6.913a7.141,7.141,0,0,0-7.152-7.009c-4.272,0-6.817,3.217-7.105,7.009Z" style="fill: #181716"/>
      <path d="M678.276,115.661h3.841v3.648h.1a9.148,9.148,0,0,1,8.017-4.224c3.024,0,5.808,1.2,6.816,4.224a9.183,9.183,0,0,1,7.777-4.224c4.944,0,8.257,2.064,8.257,7.2v18.193H709V124.206c0-3.073-.816-5.521-4.8-5.521-3.937,0-6.481,2.5-6.481,6.337v15.457h-4.08V124.206c0-3.217-1.009-5.521-4.657-5.521a6.694,6.694,0,0,0-6.624,6.337v15.457h-4.081Z" style="fill: #181716"/>
      <path d="M739.91,132.607c-1.1,5.472-5.04,8.448-10.609,8.448-7.921,0-11.665-5.472-11.905-13.057,0-7.441,4.9-12.913,11.665-12.913,8.785,0,11.473,8.209,11.233,14.209H721.716c-.144,4.32,2.3,8.161,7.729,8.161,3.361,0,5.713-1.632,6.433-4.848Zm-3.936-6.913a7.141,7.141,0,0,0-7.153-7.009c-4.272,0-6.817,3.217-7.105,7.009Z" style="fill: #181716"/>
      <path d="M744.036,115.661h3.84V119.6h.1a8.639,8.639,0,0,1,8.065-4.512c6.528,0,8.545,3.744,8.545,9.073v16.321H760.5v-16.8a4.676,4.676,0,0,0-5.041-4.993c-4.944,0-7.344,3.313-7.344,7.777v14.017h-4.08Z" style="fill: #181716"/>
      <path d="M775.86,115.661H780.8v3.6H775.86v15.41c0,1.872.528,2.208,3.072,2.208H780.8v3.6h-3.12c-4.225,0-5.9-.864-5.9-5.424V119.261h-4.224v-3.6h4.224V108.22h4.081Z" style="fill: #181716"/>
      <path d="M817.765,138.367c0,8.065-3.7,12.193-11.521,12.193-4.657,0-10.033-1.872-10.273-7.3h4.08c.192,2.977,3.744,4.033,6.433,4.033,5.329,0,7.44-3.841,7.44-9.409v-1.632h-.1c-1.345,3.024-4.609,4.512-7.729,4.512-7.393,0-11.089-5.808-11.089-12.577,0-5.856,2.88-13.105,11.473-13.105a8.1,8.1,0,0,1,7.392,4.129h.048v-3.553h3.841Zm-4.033-10.8c0-4.368-1.919-8.881-7.056-8.881-5.233,0-7.345,4.273-7.345,9.025,0,4.464,1.632,9.457,7.009,9.457S813.732,132.222,813.732,127.566Z" style="fill: #181716"/>
      <path d="M823.667,106.2h4.08v34.275h-4.08Z" style="fill: #181716"/>
      <path d="M844.307,115.085c7.872,0,12.048,5.713,12.048,13.009,0,7.249-4.176,12.961-12.048,12.961s-12.05-5.712-12.05-12.961C832.257,120.8,836.434,115.085,844.307,115.085Zm0,22.37c4.272,0,7.728-3.361,7.728-9.361,0-6.048-3.456-9.409-7.728-9.409s-7.729,3.361-7.729,9.409C836.578,134.094,840.034,137.455,844.307,137.455Z" style="fill: #181716"/>
      <path d="M860.817,106.2h4.08v12.817h.1c1.344-2.736,4.513-3.936,7.921-3.936,7.632,0,11.425,6.048,11.425,13.057s-3.744,12.913-11.329,12.913c-2.544,0-6.193-.96-8.017-3.888h-.1v3.312h-4.08Zm11.521,12.481c-5.473,0-7.585,4.7-7.585,9.361,0,4.9,2.208,9.409,7.825,9.409,5.569,0,7.441-4.753,7.441-9.6C880.019,123.2,877.618,118.685,872.338,118.685Z" style="fill: #181716"/>
      <path d="M910.642,140.383a5.5,5.5,0,0,1-2.928.672c-2.112,0-3.456-1.152-3.456-3.84a11.015,11.015,0,0,1-8.737,3.84c-4.513,0-8.209-2.016-8.209-6.961,0-5.616,4.176-6.816,8.4-7.632,4.512-.864,8.352-.576,8.352-3.648,0-3.553-2.928-4.129-5.52-4.129-3.456,0-6,1.056-6.192,4.7h-4.081c.24-6.145,4.993-8.305,10.513-8.305,4.465,0,9.313,1.008,9.313,6.817v12.769c0,1.92,0,2.784,1.3,2.784a3.5,3.5,0,0,0,1.248-.24Zm-6.624-12.721c-1.584,1.152-4.657,1.2-7.393,1.68-2.688.48-4.993,1.44-4.993,4.465,0,2.688,2.305,3.648,4.8,3.648,5.377,0,7.585-3.361,7.585-5.616Z" style="fill: #181716"/>
      <path d="M914.192,106.2h4.08v34.275h-4.08Z" style="fill: #181716"/>
    </g>
  </g>
  <path d="M419.486,188.387a5.5,5.5,0,0,1-2.926.672c-2.111,0-3.454-1.152-3.454-3.838a11.008,11.008,0,0,1-8.731,3.838c-4.51,0-8.2-2.015-8.2-6.957,0-5.613,4.174-6.812,8.395-7.627,4.51-.864,8.348-.576,8.348-3.646,0-3.55-2.927-4.126-5.517-4.126-3.454,0-6,1.055-6.189,4.7h-4.077c.239-6.14,4.989-8.3,10.506-8.3,4.461,0,9.307,1.007,9.307,6.812v12.761c0,1.919,0,2.783,1.295,2.783a3.494,3.494,0,0,0,1.247-.24Zm-6.62-12.713c-1.583,1.151-4.654,1.2-7.388,1.679-2.687.48-4.989,1.439-4.989,4.462,0,2.686,2.3,3.646,4.8,3.646,5.373,0,7.58-3.359,7.58-5.613Zm-11.946-22.26h5.23l4.125,6.86h-3.07Zm32.355,13.1c-.336-6.908,3.742-12.041,10.938-12.041,5.949,0,10.65,3.454,10.65,9.786,0,6-4.03,9.019-8.251,11.658-4.27,2.59-8.732,4.749-9.547,8.971h17.462v3.6H432.315c.672-8.06,4.75-10.938,9.547-13.913,5.757-3.55,8.683-5.66,8.683-10.362,0-3.694-2.974-6.14-6.572-6.14-4.749,0-6.764,4.365-6.62,8.443Zm37.386-12.041c10.65,0,11.322,9.786,11.322,17.318,0,7.484-.672,17.271-11.322,17.271s-11.322-9.787-11.322-17.271C459.339,164.256,460.011,154.47,470.661,154.47Zm0,30.991c6.956,0,7-8.636,7-13.721,0-5.037-.048-13.672-7-13.672s-7,8.635-7,13.672C463.657,176.825,463.705,185.461,470.661,185.461ZM520,188.387a5.5,5.5,0,0,1-2.926.672c-2.111,0-3.454-1.152-3.454-3.838a11.008,11.008,0,0,1-8.732,3.838c-4.509,0-8.2-2.015-8.2-6.957,0-5.613,4.174-6.812,8.4-7.627,4.51-.864,8.348-.576,8.348-3.646,0-3.55-2.927-4.126-5.517-4.126-3.454,0-6,1.055-6.189,4.7h-4.078c.24-6.14,4.99-8.3,10.507-8.3,4.461,0,9.307,1.007,9.307,6.812v12.761c0,1.919,0,2.783,1.295,2.783a3.5,3.5,0,0,0,1.247-.24Zm-6.62-12.713c-1.583,1.151-4.654,1.2-7.388,1.679-2.687.48-4.989,1.439-4.989,4.462,0,2.686,2.3,3.646,4.8,3.646,5.373,0,7.58-3.359,7.58-5.613Zm9.9-11.994h3.838v3.934h.1a8.634,8.634,0,0,1,8.06-4.509c6.524,0,8.539,3.742,8.539,9.067v16.311h-4.078V171.692A4.673,4.673,0,0,0,534.7,166.7c-4.941,0-7.34,3.31-7.34,7.772v14.008h-4.078Zm28.655,16.983c.144,3.646,3.31,4.8,6.668,4.8,2.543,0,6-.576,6-3.694,0-3.167-4.03-3.694-8.108-4.606-4.029-.911-8.107-2.255-8.107-7,0-4.989,4.941-7.052,9.259-7.052,5.469,0,9.834,1.727,10.17,7.772h-4.078c-.287-3.167-3.07-4.174-5.756-4.174-2.447,0-5.277.671-5.277,3.166,0,2.926,4.317,3.406,8.107,4.318,4.078.911,8.108,2.254,8.108,7.052,0,5.9-5.517,7.82-10.555,7.82-5.565,0-10.266-2.255-10.506-8.4Z" style="fill: #181716"/>
  <path d="M539.09,256.586a11.19,11.19,0,0,1-9.169,4.244c-8.528,0-13.613-6.967-13.613-14.414,0-8.328,4.565-15.535,13.613-15.535,6.246,0,11.211,2.8,12.292,9.489h-3.8c-.761-4.324-4.244-6.286-8.489-6.286-6.926,0-9.809,6.006-9.809,12.132,0,5.965,3.443,11.411,9.809,11.411,5.886,0,9.41-4.124,9.169-9.329h-9.129v-3.2h12.533v15.054h-2.4Zm26.757,3.483a4.583,4.583,0,0,1-2.442.561c-1.762,0-2.883-.961-2.883-3.2a9.187,9.187,0,0,1-7.287,3.2c-3.764,0-6.847-1.682-6.847-5.806,0-4.685,3.483-5.686,7.007-6.366,3.763-.721,6.967-.481,6.967-3.043,0-2.963-2.443-3.444-4.605-3.444-2.883,0-5,.881-5.165,3.924h-3.4c.2-5.125,4.164-6.926,8.768-6.926,3.724,0,7.768.84,7.768,5.685v10.651c0,1.6,0,2.322,1.081,2.322a2.927,2.927,0,0,0,1.041-.2Zm-5.525-10.61c-1.322.961-3.884,1-6.166,1.4-2.243.4-4.165,1.2-4.165,3.724,0,2.242,1.922,3.043,4,3.043,4.485,0,6.327-2.8,6.327-4.685Zm6.985,8.088,12.493-15.1H568.108v-3h16.1v2.322l-12.652,15.375h13.213v3H567.307Zm33.4-15.1h-3.483v-3h3.483v-3.083c0-3.363,2-5.125,5.726-5.125a8.375,8.375,0,0,1,2.2.32v2.963a6.39,6.39,0,0,0-1.922-.28c-1.641,0-2.6.52-2.6,2.322v2.883h4v3h-4v17.7h-3.4Zm10.651-10.891h3.4v28.588h-3.4Zm25.805,28.588h-3.2v-3.283h-.08a7.206,7.206,0,0,1-6.727,3.764c-5.445,0-7.127-3.123-7.127-7.568V239.449h3.4v14.014a3.9,3.9,0,0,0,4.2,4.164c4.124,0,6.126-2.763,6.126-6.487V239.449h3.4Zm14.032-21.18c6.566,0,10.05,4.764,10.05,10.85,0,6.046-3.484,10.811-10.05,10.811s-10.05-4.765-10.05-10.811C641.148,243.733,644.631,238.969,651.2,238.969Zm0,18.658c3.563,0,6.446-2.8,6.446-7.808,0-5.045-2.883-7.848-6.446-7.848s-6.446,2.8-6.446,7.848C644.752,254.824,647.634,257.627,651.2,257.627Zm13.911-18.178h3.2v4.364h.08c1.642-3.323,3.924-4.965,7.608-4.844v3.6c-5.485,0-7.487,3.123-7.487,8.368v9.209h-3.4Zm30.373,14.134c-.921,4.564-4.2,7.047-8.848,7.047-6.607,0-9.73-4.565-9.93-10.891,0-6.206,4.084-10.77,9.729-10.77,7.328,0,9.57,6.846,9.37,11.851h-15.5c-.12,3.6,1.922,6.807,6.447,6.807,2.8,0,4.764-1.362,5.365-4.044Zm-3.283-5.766a5.956,5.956,0,0,0-5.966-5.846c-3.563,0-5.685,2.683-5.926,5.846Zm-5.165-16.936H691.4l-5.245,5.725h-2.562Zm14.353,22.742c.12,3.043,2.763,4,5.566,4,2.122,0,5-.481,5-3.083,0-2.643-3.364-3.083-6.767-3.844-3.363-.761-6.767-1.882-6.767-5.846,0-4.164,4.124-5.885,7.728-5.885,4.564,0,8.208,1.441,8.488,6.486h-3.4c-.24-2.643-2.563-3.484-4.8-3.484-2.042,0-4.4.561-4.4,2.643,0,2.442,3.6,2.843,6.766,3.6,3.4.76,6.767,1.881,6.767,5.885,0,4.925-4.6,6.527-8.809,6.527-4.644,0-8.568-1.882-8.768-7.007Z" style="fill: #181716"/>
  <g>
    <path d="M517.708,279.6h12.517c5.679,0,8.759,3.16,8.759,8.438s-3.08,8.479-8.759,8.439h-8.718v11.678h-3.8Zm3.8,13.678h7.438c4.28.04,6.24-1.84,6.24-5.24s-1.96-5.239-6.24-5.239h-7.438Z" style="fill: #181716"/>
    <path d="M543.627,279.6h18.757v3.2H547.427v9.079h13.117v3.2H547.427v13.078h-3.8Z" style="fill: #181716"/>
    <path d="M586.664,288.194c-.8-4.039-4.04-6.079-8-6.079-6.8,0-9.679,5.6-9.679,11.558,0,6.52,2.88,11.958,9.719,11.958,5,0,7.879-3.519,8.238-8.238h3.8c-.72,7.119-5.159,11.438-12.358,11.438-8.879,0-13.2-6.559-13.2-14.878,0-8.278,4.719-15.037,13.518-15.037,5.959,0,10.878,3.2,11.758,9.278Z" style="fill: #181716"/>
    <path d="M616.825,296.673h8.718v2.72h-8.718v8.758h-2.72v-8.758h-8.718v-2.72h8.718v-8.759h2.72Z" style="fill: #181716"/>
    <path d="M641.706,279.6h3.8v12.278h15.038V279.6h3.8v28.555h-3.8V295.073H645.505v13.078h-3.8Z" style="fill: #181716"/>
    <path d="M670.585,279.6h18.757v3.2H674.385v9.079H687.5v3.2H674.385v13.078h-3.8Z" style="fill: #181716"/>
    <path d="M713.622,288.194c-.8-4.039-4.04-6.079-8-6.079-6.8,0-9.679,5.6-9.679,11.558,0,6.52,2.88,11.958,9.719,11.958,5,0,7.879-3.519,8.238-8.238h3.8c-.72,7.119-5.159,11.438-12.358,11.438-8.879,0-13.2-6.559-13.2-14.878,0-8.278,4.719-15.037,13.518-15.037,5.959,0,10.878,3.2,11.758,9.278Z" style="fill: #181716"/>
    <path d="M743.783,296.673H752.5v2.72h-8.718v8.758h-2.72v-8.758h-8.718v-2.72h8.718v-8.759h2.72Z" style="fill: #181716"/>
    <path d="M785.181,287.954c-.44-4.079-3.159-5.839-7.078-5.839-3.2,0-6.4,1.16-6.4,4.88,0,3.519,4.559,4.039,9.158,5.079,4.559,1.039,9.118,2.64,9.118,8.238,0,6.079-5.958,8.519-11.158,8.519-6.4,0-11.8-3.119-11.8-10.078h3.6c0,4.8,4,6.878,8.318,6.878,3.44,0,7.239-1.08,7.239-5.2,0-3.919-4.559-4.6-9.118-5.6s-9.159-2.319-9.159-7.558c0-5.8,5.159-8.359,10.358-8.359,5.84,0,10.279,2.759,10.519,9.038Z" style="fill: #181716"/>
    <path d="M794.584,279.6H813.34v3.2H798.383v9.079H811.5v3.2H798.383v13.078h-3.8Z" style="fill: #181716"/>
  </g>
  <path d="M824.076,301.161a2.648,2.648,0,0,0-2.774-2.472c-3.381,0-3.917,3.731-4.01,6.272l.046.047a4.483,4.483,0,0,1,4.127-2.168c3.171,0,5.059,2.308,5.059,5.362,0,2.4-1.352,5.549-5.525,5.549-4.9,0-5.689-4.476-5.689-7.951,0-4.546,1.376-8.859,6.085-8.859a4.287,4.287,0,0,1,4.663,4.22Zm-6.411,7.158a3.392,3.392,0,1,0,6.761.023c0-2.052-1.072-3.754-3.334-3.754C818.877,304.588,817.665,306.244,817.665,308.319Z" style="fill: #181716"/>
  <path d="M516.348,337.834c-.28-5.759,3.119-10.038,9.118-10.038,4.959,0,8.879,2.879,8.879,8.158,0,5-3.36,7.519-6.879,9.719-3.56,2.16-7.279,3.959-7.959,7.479h14.557v3H515.548c.559-6.719,3.959-9.119,7.958-11.6,4.8-2.96,7.239-4.719,7.239-8.639a5.166,5.166,0,0,0-5.479-5.119c-3.959,0-5.639,3.64-5.519,7.039Z" style="fill: #181716"/>
  <path d="M302.949,293.635h4.039l15.037,23.156h.08V293.635h3.6V322.19h-4.16l-14.917-22.916h-.08V322.19h-3.6Z" style="fill: #181716"/>
  <path d="M329.762,316.832c-.163-3.358,1.819-5.852,5.316-5.852,2.891,0,5.176,1.678,5.176,4.756,0,2.915-1.958,4.383-4.01,5.666-2.075,1.259-4.243,2.308-4.64,4.36h8.487v1.748H329.3c.326-3.917,2.308-5.316,4.64-6.761,2.8-1.725,4.22-2.751,4.22-5.036a3.013,3.013,0,0,0-3.195-2.985c-2.308,0-3.287,2.122-3.217,4.1Z" style="fill: #181716"/>
  <path d="M356.9,292.955c9.079,0,13.678,7.2,13.678,14.957s-4.6,14.958-13.678,14.958-13.677-7.2-13.677-14.958S347.824,292.955,356.9,292.955Zm0,26.716c6.959,0,9.879-6,9.879-11.759s-2.92-11.758-9.879-11.758-9.878,6-9.878,11.758S349.944,319.671,356.9,319.671Z" style="fill: #181716"/>
  <path d="M366.623,360.552h3.839v3h-3.839v6.639h-3.2v-6.639H350.985v-3.279L363.9,341.835h2.72Zm-3.2,0V346.674h-.08l-9.438,13.878Z" style="fill: #181716"/>
  <g style="clip-path: url(#clip-path)">
    <path d="M1449.51,841.605a155.908,155.908,0,1,0-155.9-155.9,155.9,155.9,0,0,0,155.9,155.9" style="fill: #fff"/>
  </g>
  <g>
    <path d="M1568.319,831.5c-.8-4.039-4.039-6.078-8-6.078-6.8,0-9.678,5.6-9.678,11.557,0,6.519,2.879,11.958,9.718,11.958,5,0,7.879-3.519,8.238-8.238h3.8c-.72,7.118-5.159,11.437-12.357,11.437-8.879,0-13.2-6.558-13.2-14.877,0-8.279,4.719-15.038,13.518-15.038,5.959,0,10.878,3.2,11.758,9.279Z" style="fill: #181716"/>
    <path d="M1589.2,822.22c9.079,0,13.677,7.2,13.677,14.958s-4.6,14.957-13.677,14.957-13.678-7.2-13.678-14.957S1580.121,822.22,1589.2,822.22Zm0,26.716c6.959,0,9.879-6,9.879-11.758s-2.92-11.757-9.879-11.757-9.878,6-9.878,11.757S1582.24,848.936,1589.2,848.936Z" style="fill: #181716"/>
  </g>
  <path d="M1605.425,846.1c-.163-3.357,1.82-5.851,5.317-5.851,2.89,0,5.175,1.678,5.175,4.756,0,2.915-1.958,4.383-4.009,5.666-2.075,1.258-4.244,2.307-4.64,4.359h8.486v1.749h-10.795c.327-3.917,2.309-5.316,4.64-6.762,2.8-1.724,4.221-2.751,4.221-5.036a3.012,3.012,0,0,0-3.194-2.984c-2.309,0-3.289,2.122-3.218,4.1Z" style="fill: #181716"/>
  <g>
    <path d="M1579.362,874.5c-5.719,5.679-10.359,16.077-10.878,24.956h-3.8c.641-9.6,5.239-18.357,11.2-24.676h-14.877v-3.2h18.357Z" style="fill: #181716"/>
    <path d="M1589.964,883.258c.52.04,1,.04,1.48.04,2.88,0,5.4-1.559,5.4-4.639,0-2.959-2.16-4.559-5.039-4.559-3.72,0-5.319,2.839-5.359,6.158h-3.4c.2-5.4,3.08-9.158,8.759-9.158,4.919,0,8.639,2.36,8.639,7.6a6.5,6.5,0,0,1-3.92,5.64v.08c3.439.759,5.119,3.479,5.119,6.879,0,5.678-4.439,8.637-9.758,8.637-5.759,0-9.558-3.4-9.438-9.238h3.4c.119,3.68,2.159,6.239,6.039,6.239,3.32,0,6.158-2.04,6.158-5.479,0-3.559-2.679-5.439-6.039-5.439a16.94,16.94,0,0,0-2.039.12Z" style="fill: #181716"/>
  </g>
  <g>
    <path d="M1248,564.616c-.8-4.039-4.039-6.079-8-6.079-6.8,0-9.677,5.6-9.677,11.558,0,6.519,2.879,11.958,9.717,11.958,5,0,7.879-3.519,8.239-8.238h3.8c-.72,7.119-5.16,11.438-12.358,11.438-8.879,0-13.2-6.559-13.2-14.878,0-8.278,4.719-15.037,13.517-15.037,5.959,0,10.878,3.2,11.758,9.278Z" style="fill: #181716"/>
    <path d="M1256.8,556.018h3.8V568.3h15.037V556.018h3.8v28.555h-3.8V571.5H1260.6v13.078h-3.8Z" style="fill: #181716"/>
  </g>
  <path d="M1292.318,584.274h2.238v1.749h-2.238v3.87h-1.865v-3.87H1283.2v-1.912l7.531-10.749h1.586Zm-1.865,0v-8.09h-.047l-5.5,8.09Z" style="fill: #181716"/>
  <g>
    <path d="M1239.671,614.256c-.28-5.759,3.12-10.039,9.119-10.039,4.959,0,8.878,2.88,8.878,8.159,0,5-3.359,7.519-6.878,9.718-3.56,2.161-7.28,3.96-7.959,7.48h14.557v3h-18.516c.559-6.719,3.959-9.118,7.959-11.6,4.8-2.96,7.238-4.719,7.238-8.639a5.167,5.167,0,0,0-5.48-5.119c-3.959,0-5.638,3.64-5.518,7.039Z" style="fill: #181716"/>
    <path d="M1271.27,604.217c8.879,0,9.439,8.159,9.439,14.438,0,6.239-.56,14.4-9.439,14.4s-9.438-8.158-9.438-14.4C1261.832,612.376,1262.391,604.217,1271.27,604.217Zm0,25.836c5.8,0,5.839-7.2,5.839-11.438,0-4.2-.04-11.4-5.839-11.4s-5.839,7.2-5.839,11.4C1265.431,622.854,1265.471,630.053,1271.27,630.053Z" style="fill: #181716"/>
  </g>
  <path d="M1256.792,293.619h4.04l15.037,23.157h.08V293.619h3.6v28.555h-4.159l-14.918-22.916h-.08v22.916h-3.6Z" style="fill: #181716"/>
  <path d="M1283.613,316.832c-.163-3.358,1.819-5.852,5.316-5.852,2.891,0,5.176,1.678,5.176,4.756,0,2.915-1.958,4.383-4.01,5.666-2.075,1.259-4.244,2.308-4.639,4.36h8.486v1.748h-10.8c.326-3.917,2.309-5.316,4.64-6.761,2.8-1.725,4.22-2.751,4.22-5.036a3.013,3.013,0,0,0-3.194-2.985c-2.309,0-3.288,2.122-3.218,4.1Z" style="fill: #181716"/>
  <path d="M1310.746,292.955c9.079,0,13.677,7.2,13.677,14.957s-4.6,14.958-13.677,14.958-13.678-7.2-13.678-14.958S1301.667,292.955,1310.746,292.955Zm0,26.716c6.959,0,9.879-6,9.879-11.759s-2.92-11.758-9.879-11.758-9.878,6-9.878,11.758S1303.787,319.671,1310.746,319.671Z" style="fill: #181716"/>
  <path d="M1322.505,345.314h-11.438l-1.52,8.159.08.08a7.176,7.176,0,0,1,5.28-2.04c5.039,0,9.158,3.24,9.158,9.719,0,4.8-3.319,9.438-9.918,9.438-4.919,0-8.919-3-9.039-8.119h3.4c.2,2.92,2.56,5.12,5.959,5.12,3.241,0,6-2.2,6-6.719a6.141,6.141,0,0,0-6.4-6.439,6.8,6.8,0,0,0-5.279,2.679l-2.92-.16,2.639-14.717h14Z" style="fill: #181716"/>
  <g>
    <path d="M9.629,14.162H33.3V18H14.19V28.9H32v3.84H14.19V44.6H33.439v3.841H9.629Z" style="fill: #181716"/>
    <path d="M37.805,23.618h3.841v3.937h.1a8.638,8.638,0,0,1,8.064-4.512c6.529,0,8.545,3.744,8.545,9.072V48.437h-4.08v-16.8a4.676,4.676,0,0,0-5.041-4.992c-4.944,0-7.344,3.312-7.344,7.777V48.437H37.805Z" style="fill: #181716"/>
    <path d="M84.606,14.4c5.953,0,7.681,4.368,7.681,9.6,0,4.992-2.112,9.649-7.681,9.649-5.808,0-7.776-4.321-7.776-9.505C76.83,19.01,78.7,14.4,84.606,14.4Zm-.144,16.609c3.648,0,4.225-4.032,4.225-7.008,0-2.833-.48-6.961-4.081-6.961-3.552,0-4.176,4.128-4.176,7.008C80.43,26.835,80.862,31.011,84.462,31.011Zm22.8-17.234h4.08L85.566,49.493H81.438Zm1.056,15.986c5.953,0,7.681,4.368,7.681,9.6,0,4.992-2.112,9.649-7.681,9.649-5.808,0-7.777-4.32-7.777-9.5C100.543,34.371,102.416,29.763,108.32,29.763Zm-.144,16.61c3.649,0,4.224-4.033,4.224-7.009,0-2.833-.48-6.961-4.08-6.961-3.552,0-4.176,4.128-4.176,7.009C104.144,42.2,104.576,46.373,108.176,46.373Z" style="fill: #181716"/>
  </g>
</svg>
